{
	"asset":{
		"version":"2.0",
		"generator":"Created using the official Cinema 4D glTF Exporter 1.000x290161"
	},
	"scenes":[{
		"nodes":[0,
		2]
	}],
	"nodes":[{
		"name":"rabbit_for_ears_1_cut.obj",
		"translation":[34.27445602416992,
		-97.18299865722656,
		7.532498359680176],
		"rotation":[0.0,
		-0.4617486000061035,
		0.0,
		-0.8870108127593994],
		"scale":[1.4299999475479127,
		1.4299999475479127,
		1.4299999475479127],
		"children":[1]
	},
	{
		"name":"Judy.blend_for_print",
		"mesh":0
	},
	{
		"name":"Hat",
		"translation":[0.0,
		0.0,
		0.0],
		"rotation":[0.0,
		-1.0,
		0.0,
		-6.123234262925839e-17],
		"scale":[1.0,
		1.0,
		1.0],
		"children":[3]
	},
	{
		"name":"Tube+Field",
		"mesh":1
	}],
	"meshes":[{
		"primitives":[{
			"attributes":{
				"POSITION":1,
				"NORMAL":2
			},
			"indices":0,
			"material":0
		}]
	},
	{
		"primitives":[{
			"attributes":{
				"POSITION":4,
				"NORMAL":5,
				"TEXCOORD_0":6
			},
			"indices":3,
			"material":0
		}]
	}],
	"accessors":[{
		"bufferView":0,
		"type":"SCALAR",
		"componentType":5123,
		"count":18372,
		"byteOffset":0,
		"min":[0],
		"max":[4004]
	},
	{
		"bufferView":1,
		"type":"VEC3",
		"componentType":5126,
		"count":4005,
		"byteOffset":0,
		"min":[-93.68704223632813,
		6.818138599395752,
		-80.13948822021485],
		"max":[107.23937225341797,
		250.50039672851563,
		59.340476989746097]
	},
	{
		"bufferView":1,
		"type":"VEC3",
		"componentType":5126,
		"count":4005,
		"byteOffset":12,
		"min":[-0.9998229742050171,
		-0.8607054352760315,
		-0.9999634623527527],
		"max":[0.9995992183685303,
		0.9997308254241943,
		0.9997029304504395]
	},
	{
		"bufferView":2,
		"type":"SCALAR",
		"componentType":5123,
		"count":32502,
		"byteOffset":0,
		"min":[0],
		"max":[8643]
	},
	{
		"bufferView":3,
		"type":"VEC3",
		"componentType":5126,
		"count":8644,
		"byteOffset":0,
		"min":[-216.89698791503907,
		-216.42904663085938,
		-190.0],
		"max":[218.24246215820313,
		74.62449645996094,
		190.0]
	},
	{
		"bufferView":3,
		"type":"VEC3",
		"componentType":5126,
		"count":8644,
		"byteOffset":12,
		"min":[-0.9999986886978149,
		-1.0,
		-0.999998152256012],
		"max":[0.9999998807907105,
		1.0,
		0.9999980926513672]
	},
	{
		"bufferView":3,
		"type":"VEC2",
		"componentType":5126,
		"count":8644,
		"byteOffset":24,
		"min":[-0.039780955761671069,
		-0.03726102411746979],
		"max":[1.0397809743881226,
		1.0372610092163087]
	}],
	"bufferViews":[{
		"buffer":0,
		"byteOffset":0,
		"byteLength":36744,
		"target":34963
	},
	{
		"buffer":0,
		"byteOffset":36744,
		"byteLength":96120,
		"target":34962,
		"byteStride":24
	},
	{
		"buffer":1,
		"byteOffset":0,
		"byteLength":65004,
		"target":34963
	},
	{
		"buffer":1,
		"byteOffset":65004,
		"byteLength":276608,
		"target":34962,
		"byteStride":32
	}],
	"buffers":[{
		"uri":"data:application/octet-stream;base64,",
		"byteLength":132864
	},
	{
		"uri":"data:application/octet-stream;base64,",
		"byteLength":341612
	}],
	"materials":[{
		"pbrMetallicRoughness":{
			"baseColorFactor":[0.800000011920929,
			0.800000011920929,
			0.800000011920929,
			1.0],
			"metallicFactor":1.0,
			"roughnessFactor":0.5
		},
		"emissiveFactor":[0.0,
		0.0,
		0.0],
		"alphaMode":"OPAQUE",
		"doubleSided":false,
		"name":"Mat"
	}]
}