{
	"asset":{
		"version":"2.0",
		"generator":"Created using the official Cinema 4D glTF Exporter 1.000x290161"
	},
	"scenes":[{
		"nodes":[0]
	}],
	"nodes":[{
		"scale":[0.75,
		0.75,
		0.75],
		"name":"Key",
		"translation":[0.0,
		0.0,
		2.3800097770408994e-14],
		"rotation":[0.0,
		0.0,
		0.0,
		-1.0],
		"mesh":0
	}],
	"meshes":[{
		"primitives":[{
			"attributes":{
				"POSITION":1,
				"NORMAL":2,
				"TEXCOORD_0":3
			},
			"indices":0,
			"material":0
		}]
	}],
	"accessors":[{
		"bufferView":0,
		"type":"SCALAR",
		"componentType":5123,
		"count":95469,
		"byteOffset":0,
		"min":[0],
		"max":[27424]
	},
	{
		"bufferView":1,
		"type":"VEC3",
		"componentType":5126,
		"count":27425,
		"byteOffset":0,
		"min":[-173.9195556640625,
		-420.60650634765627,
		-22.570363998413087],
		"max":[173.9195556640625,
		464.8808898925781,
		22.570363998413087]
	},
	{
		"bufferView":1,
		"type":"VEC3",
		"componentType":5126,
		"count":27425,
		"byteOffset":12,
		"min":[-1.0,
		-1.0,
		-1.0],
		"max":[1.0,
		1.0,
		1.0]
	},
	{
		"bufferView":1,
		"type":"VEC2",
		"componentType":5126,
		"count":27425,
		"byteOffset":24,
		"min":[0.0,
		0.0],
		"max":[1.0,
		1.0]
	}],
	"bufferViews":[{
		"buffer":0,
		"byteOffset":0,
		"byteLength":190938,
		"target":34963
	},
	{
		"buffer":0,
		"byteOffset":190940,
		"byteLength":877600,
		"target":34962,
		"byteStride":32
	}],
	"buffers":[{
		"uri":"data:application/octet-stream;base64,",
		"byteLength":1068540
	}],
	"materials":[{
		"pbrMetallicRoughness":{
			"baseColorFactor":[1.0,
			1.0,
			1.0,
			1.0],
			"metallicFactor":1.0,
			"roughnessFactor":1.0
		},
		"emissiveFactor":[0.0,
		0.0,
		0.0],
		"alphaMode":"OPAQUE",
		"doubleSided":false,
		"name":""
	}]
}