{
	"asset":{
		"version":"2.0",
		"generator":"Created using the official Cinema 4D glTF Exporter 1.000x290161"
	},
	"scenes":[{
		"nodes":[0]
	}],
	"nodes":[{
		"name":"Rabbit Null",
		"translation":[3.0862369537353517,
		-16.662538528442384,
		-6.611274434810063e-14],
		"rotation":[0.7071067690849304,
		0.0,
		0.0,
		-0.7071067690849304],
		"scale":[1.0,
		1.0,
		1.0],
		"children":[1,
		2,
		3]
	},
	{
		"name":"Torus",
		"mesh":0,
		"translation":[0.0,
		-5.725542246261609e-14,
		127.98847961425781],
		"rotation":[-0.7071067690849304,
		0.0,
		0.0,
		-0.7071067690849304],
		"scale":[1.0,
		1.0,
		1.0]
	},
	{
		"name":"Sphere",
		"mesh":1,
		"translation":[0.0,
		-5.725542246261609e-14,
		127.98847961425781],
		"rotation":[-0.7071067690849304,
		0.0,
		0.0,
		-0.7071067690849304],
		"scale":[1.0,
		1.0,
		1.0]
	},
	{
		"name":"Rabbit",
		"mesh":2,
		"translation":[-5.75309419631958,
		-7.462296009063721,
		119.37904357910156],
		"rotation":[0.21861620247364045,
		-0.6724633574485779,
		-0.6724633574485779,
		0.21861620247364045],
		"scale":[1.100000023841858,
		1.100000023841858,
		1.100000023841858]
	}],
	"meshes":[{
		"primitives":[{
			"attributes":{
				"POSITION":1,
				"NORMAL":2,
				"TEXCOORD_0":3
			},
			"indices":0,
			"material":0
		}]
	},
	{
		"primitives":[{
			"attributes":{
				"POSITION":5,
				"NORMAL":6,
				"TEXCOORD_0":7
			},
			"indices":4,
			"material":0
		}]
	},
	{
		"primitives":[{
			"attributes":{
				"POSITION":9,
				"NORMAL":10,
				"TEXCOORD_0":11
			},
			"indices":8,
			"material":1
		}]
	}],
	"accessors":[{
		"bufferView":0,
		"type":"SCALAR",
		"componentType":5123,
		"count":4320,
		"byteOffset":0,
		"min":[0],
		"max":[778]
	},
	{
		"bufferView":1,
		"type":"VEC3",
		"componentType":5126,
		"count":779,
		"byteOffset":0,
		"min":[-187.0,
		-25.60500144958496,
		-187.0],
		"max":[187.0,
		25.60500144958496,
		187.0]
	},
	{
		"bufferView":1,
		"type":"VEC3",
		"componentType":5126,
		"count":779,
		"byteOffset":12,
		"min":[-1.0,
		-0.9848031401634216,
		-1.0],
		"max":[1.0,
		0.9848031401634216,
		1.0]
	},
	{
		"bufferView":1,
		"type":"VEC2",
		"componentType":5126,
		"count":779,
		"byteOffset":24,
		"min":[0.0,
		0.0],
		"max":[1.0,
		1.0]
	},
	{
		"bufferView":2,
		"type":"SCALAR",
		"componentType":5123,
		"count":4560,
		"byteOffset":0,
		"min":[0],
		"max":[858]
	},
	{
		"bufferView":3,
		"type":"VEC3",
		"componentType":5126,
		"count":859,
		"byteOffset":0,
		"min":[-134.0,
		-134.0,
		-134.0],
		"max":[134.0,
		134.0,
		134.0]
	},
	{
		"bufferView":3,
		"type":"VEC3",
		"componentType":5126,
		"count":859,
		"byteOffset":12,
		"min":[-0.9999999403953552,
		-1.0,
		-0.9999999403953552],
		"max":[0.9999999403953552,
		1.0,
		0.9999999403953552]
	},
	{
		"bufferView":3,
		"type":"VEC2",
		"componentType":5126,
		"count":859,
		"byteOffset":24,
		"min":[0.0,
		0.0],
		"max":[1.0,
		1.0]
	},
	{
		"bufferView":4,
		"type":"SCALAR",
		"componentType":5123,
		"count":22632,
		"byteOffset":0,
		"min":[0],
		"max":[4916]
	},
	{
		"bufferView":5,
		"type":"VEC3",
		"componentType":5126,
		"count":4917,
		"byteOffset":0,
		"min":[-159.9890594482422,
		77.44137573242188,
		-144.912109375],
		"max":[154.84730529785157,
		388.25958251953127,
		93.39497375488281]
	},
	{
		"bufferView":5,
		"type":"VEC3",
		"componentType":5126,
		"count":4917,
		"byteOffset":12,
		"min":[-0.9997082948684692,
		-1.0,
		-0.9995142221450806],
		"max":[0.9992597103118897,
		1.0,
		0.9999553561210632]
	},
	{
		"bufferView":5,
		"type":"VEC2",
		"componentType":5126,
		"count":4917,
		"byteOffset":24,
		"min":[0.0,
		0.0],
		"max":[0.0,
		0.0]
	}],
	"bufferViews":[{
		"buffer":0,
		"byteOffset":0,
		"byteLength":8640,
		"target":34963
	},
	{
		"buffer":0,
		"byteOffset":8640,
		"byteLength":24928,
		"target":34962,
		"byteStride":32
	},
	{
		"buffer":1,
		"byteOffset":0,
		"byteLength":9120,
		"target":34963
	},
	{
		"buffer":1,
		"byteOffset":9120,
		"byteLength":27488,
		"target":34962,
		"byteStride":32
	},
	{
		"buffer":2,
		"byteOffset":0,
		"byteLength":45264,
		"target":34963
	},
	{
		"buffer":2,
		"byteOffset":45264,
		"byteLength":157344,
		"target":34962,
		"byteStride":32
	}],
	"buffers":[{
		"uri":"data:application/octet-stream;base64,",
		"byteLength":33568
	},
	{
		"uri":"data:application/octet-stream;base64,",
		"byteLength":36608
	},
	{
		"uri":"data:application/octet-stream;base64,",
		"byteLength":202608
	}],
	"materials":[{
		"pbrMetallicRoughness":{
			"baseColorFactor":[0.03,
			0.03,
			0.03,
			1.0],
			"metallicFactor":1.0,
			"roughnessFactor":0.68
		},
		"emissiveFactor":[0.0,
		0.0,
		0.0],
		"alphaMode":"OPAQUE",
		"doubleSided":false,
		"name":"Dark"
	},
	{
		"pbrMetallicRoughness":{
			"baseColorFactor":[0.8,
			0.8,
			0.8,
			1.0],
			"metallicFactor":1.0,
			"roughnessFactor":0.17
		},
		"emissiveFactor":[0.0,
		0.0,
		0.0],
		"alphaMode":"OPAQUE",
		"doubleSided":false,
		"name":"Versicolor"
	}]
}