<svg version="1.1" xmlns="http://www.w3.org/2000/svg" xmlns:xlink="http://www.w3.org/1999/xlink" x="0px" y="0px"
	 viewBox="200 0 1280 300" preserveAspectRatio="xMinYMin meet">
  <defs>
    <path id="trajectory" fill="none" stroke="#FFFFFF" d="M-50,59.9c130.8-42,462.6,96.8,683.8,96.8c367.2,0,701.4-78.2,992.3-78.2"/>
    <g id="star1">
      <path fill="none" stroke="#FFFFFF" stroke-miterlimit="10" d="M-3.5,-3.5l-7,7"/>
		  <path fill="none" stroke="#FFFFFF" stroke-miterlimit="10" d="M-3.5,3.5l-7-7"/>
    </g>
    <g id="star2">
      <path fill="none" stroke="#FFFFFF" stroke-miterlimit="10" d="M-2,-2l-4,4"/>
		  <path fill="none" stroke="#FFFFFF" stroke-miterlimit="10" d="M-2,2l-4-4"/>
    </g>
  </defs>
  <g id="stars">
    <g id="starsTailLeading">
      <g id="s1Jumping">
        <animateTransform attributeName="transform"
                type="translate"
                repeatCount="indefinite"
                dur="20s"
                additive="sum"
                calcMode="discrete"
                values="0 0; 
                  250 70; 350 76; 460 107; 550 116; 620 139; 715 148; 795 153; 
                  868 127; 930 122; 1034 134; 1092 132; 1155 121; 1255 102; 
                  0 0; 
                  0 0"
                keyTimes="0; 
                  0.15; 0.2; 0.25; 0.3; 0.35; 0.4; 0.45;
                  0.5; 0.55; 0.6; 0.65; 0.7; 0.75; 
                  0.8;
                  1"/>
        <g id="s1Blinking">
          <animate attributeType="CSS"
                attributeName="opacity"
                calcMode="discrete"
                values="0; 1; 0; 0"
                keyTimes="0; 0.01; 0.5; 1"
                dur="1s"
                repeatCount="indefinite"/>
          <use xlink:href="#star1"/>
        </g>
        <g id="s1add1Blinking">
          <animateTransform attributeName="transform"
                type="translate"
                repeatCount="indefinite"
                dur="20s"
                additive="sum"
                calcMode="discrete"
                values="0 0; 
                  25 -7; 28 12; 25 -7; 28 12; 25 -27; 28 12; 25 -7; 
                  28 12; 25 -7; 28 12; 25 -7; 28 12; 25 17;
                  0 0; 
                  0 0"
                keyTimes="0; 
                  0.15; 0.2; 0.25; 0.3; 0.35; 0.4; 0.45;
                  0.5; 0.55; 0.6; 0.65; 0.7; 0.75; 
                  0.8;
                  1"/>
          <animate attributeType="CSS"
                attributeName="opacity"
                calcMode="discrete"
                values="0; 1; 0; 0"
                keyTimes="0; 0.4; 0.8; 1"
                dur="0.65s"
                repeatCount="indefinite"/>
          <use xlink:href="#star2"/>
        </g>
      </g>
      <g id="s2Jumping" transform="translate(0, 0)">
        <animateTransform attributeName="transform"
                type="translate"
                repeatCount="indefinite"
                dur="20s"
                additive="sum"
                calcMode="discrete"
                values="0 0; 
                  278 97; 390 114; 490 124; 592 122; 655 131; 755 142; 
                  855 120; 900 154; 970 164; 1050 106; 1120 89; 1195 78; 1295 73; 
                  0 0; 
                  0 0"
                keyTimes="0; 
                  0.165; 0.215; 0.265; 0.315; 0.365; 0.415; 
                  0.465; 0.515; 0.565; 0.615; 0.665; 0.715; 0.765;
                  0.815;
                  1"/>
        <g id="s2Blinking">
          <animate attributeType="CSS"
                attributeName="opacity"
                calcMode="discrete"
                values="0; 1; 0; 0"
                keyTimes="0; 0.01; 0.5; 1"
                dur="1s"
                begin="3.35s"
                repeatCount="indefinite"/>
          <use xlink:href="#star1"/>
          <g class="smallLine">
            <line x1="-10" y1="-2" x2="-20" y2="-2" stroke-dasharray="3 12" fill="none" stroke="#FFFFFF" stroke-miterlimit="10" />
            <animate  dur="1s" 
                  repeatCount="indefinite"
                  calcMode="linear"
                  attributeName="stroke-dashoffset" 
                  values="3.5; -15" 
                  keyTimes="0; 1"/>
          </g>
        </g>
      </g>
    </g>
    <g id="starsPart1">
      <g id="s1p1Jumping" transform="translate(120, 10)">
        <animateTransform attributeName="transform"
                type="translate"
                repeatCount="indefinite"
                dur="20s"
                additive="sum"
                calcMode="discrete"
                values="0 0; 
                  250 70; 320 76; 460 102; 580 113; 600 112; 715 104; 775 103; 
                  868 77; 930 82; 1034 74; 1092 72; 1155 68; 1255 53; 
                  1312 93; 0 0;
                  0 0"
                keyTimes="0; 
                  0.15; 0.2; 0.25; 0.3; 0.35; 0.4; 0.45;
                  0.5; 0.55; 0.6; 0.65; 0.7; 0.75; 
                  0.8; 0.85;
                  1"/>
        <g id="s1p1Blinking">
          <animate attributeType="CSS"
                attributeName="opacity"
                calcMode="discrete"
                values="0; 1; 0; 0"
                keyTimes="0; 0.01; 0.5; 1"
                dur="1s"
                begin="0.25s"
                repeatCount="indefinite"/>
          <use xlink:href="#star1"/>
          <g class="smallLine">
            <line x1="-15" y1="2" x2="-25" y2="2" stroke-dasharray="3 12" fill="none" stroke="#FFFFFF" stroke-miterlimit="10" />
            <animate  dur="1s" 
                  begin="0.25s"
                  repeatCount="indefinite"
                  calcMode="linear"
                  attributeName="stroke-dashoffset" 
                  values="3.5; -15" 
                  keyTimes="0; 1"/>
          </g>
        </g>
        <g id="s1p1add1Blinking">
          <animateTransform attributeName="transform"
                type="translate"
                repeatCount="indefinite"
                dur="20s"
                additive="sum"
                calcMode="discrete"
                values="0 0; 
                  25 7; 28 -12; 25 7; 25 27; 28 -12; 20 -17; 25 7; 
                  28 -12; 25 7; 28 -12; 15 -7; 20 7; 28 -4;
                  28 12; 0 0; 
                  0 0"
                keyTimes="0; 
                  0.15; 0.2; 0.25; 0.3; 0.35; 0.4; 0.45;
                  0.5; 0.55; 0.6; 0.65; 0.7; 0.75; 
                  0.8; 0.85;
                  1"/>
          <animate attributeType="CSS"
                attributeName="opacity"
                calcMode="discrete"
                values="0; 1; 0; 0"
                keyTimes="0; 0.25; 0.65; 1"
                dur="1s"
                begin="0.25s"
                repeatCount="indefinite"/>
          <use xlink:href="#star2"/>
        </g>
      </g>
      <g id="s2p1Jumping" transform="translate(90, 50)">
        <animateTransform attributeName="transform"
                type="translate"
                repeatCount="indefinite"
                dur="20s"
                additive="sum"
                calcMode="discrete"
                values="0 0; 
                  278 97; 390 114; 490 124; 592 122; 655 131; 755 122; 
                  855 110; 900 114; 970 104; 1050 96; 1120 99; 1195 101; 1295 72; 
                  1304 36; 0 0;
                  0 0"
                keyTimes="0; 
                  0.165; 0.215; 0.265; 0.315; 0.365; 0.415; 
                  0.465; 0.515; 0.565; 0.615; 0.665; 0.715; 0.765;
                  0.815; 0.865;
                  1"/>
        <g id="s2p1Blinking">
          <animate attributeType="CSS"
                attributeName="opacity"
                calcMode="discrete"
                values="0; 1; 0; 0"
                keyTimes="0; 0.01; 0.5; 1"
                dur="1s"
                begin="3.75s"
                repeatCount="indefinite"/>
          <use xlink:href="#star1"/>
          <g class="smallLine">
            <line x1="10" y1="0" x2="0" y2="0" stroke-dasharray="3 12" fill="none" stroke="#FFFFFF" stroke-miterlimit="10" />
            <animate  dur="1s" 
                  begin="3.75s"
                  repeatCount="indefinite"
                  calcMode="linear"
                  attributeName="stroke-dashoffset" 
                  values="3.5; -15" 
                  keyTimes="0; 1"/>
            <animateTransform attributeName="transform"
                type="translate"
                repeatCount="indefinite"
                dur="4s"
                begin="3.75s"
                additive="sum"
                calcMode="discrete"
                values="0 2; 0 -20; -30 1.2; 1 22; 0 2"
                keyTimes="0; 0.25; 0.5; 0.75; 1"/>
          </g>
        </g>
      </g>
    </g>
  </g>
  <g id="plane">
    <animateMotion dur="20s"
                  repeatCount="indefinite"
                  calcMode="spline"
                  keyPoints="0; 0.36; 1" 
                  keyTimes="0; 0.35; 1"
                  keySplines="0.33 0.16 0.65 0.7; 0.33 0.36 0.69 0.57">
      <mpath href="#trajectory"/>
    </animateMotion>
    <animateTransform dur="20s"
                  repeatCount="indefinite"
                  calcMode="spline"
                  attributeName="transform"
                  type="rotate"
                  values="-2; 0; 10; 11; 0; -10; -2"
                  keyTimes="0; 0.012; 0.12; 0.17; 0.35; 0.7; 1"
                  keySplines="0.32 0.63 0.7 1; 0.31 0.01 0.72 0.94; 0 0 1 1; 0.3 0.09 0.7 1; 0.31 0.01 0.72 0.94; 0.3 0.09 0.7 1"
                  additive="sum"/>

    <g id="nozzleTop">
      <animateTransform dur="20s"
                        repeatCount="indefinite"
                        calcMode="spline"
                        attributeName="transform"
                        type="translate"
                        values="0, 6; 0, 0; 0, 8"
                        keyTimes="0; 0.3; 1"
                        keySplines="0.63 0 0.4 1; 0.2 0 0.51 1"
                        additive="sum"/>
      <g id="nozzleTopTrack" transform="translate(192.4,-13.8)">
        <path fill="none" stroke="#FFFFFF" stroke-dasharray="18,10,10,8,6,6,2,30" d="M0 0c-5.6,0-13,0-28,0"
          />
        <animate  dur="0.38s" 
                  repeatCount="indefinite"
                  calcMode="linear"
                  attributeName="stroke-dashoffset" 
                  values="30; 0; 30" 
                  keyTimes="0; 0.9; 1"/>
      </g>
      <path id="nozzleTopInner" fill="#353535" stroke="#FFFFFF" stroke-linejoin="round" stroke-miterlimit="10" d="M201.3-16h-6.8v3.6
        h6.8L201.3-16z"/>
    </g>
    <g id="nozzleBottom">
      <animateTransform dur="20s"
                        repeatCount="indefinite"
                        calcMode="spline"
                        attributeName="transform"
                        type="translate"
                        values="0, -6.5; 0, 0; 0, -8.5"
                        keyTimes="0; 0.3; 1"
                        keySplines="0.63 0 0.4 1; 0.2 0 0.51 1"
                        additive="sum"/>
      <g id="nozzleBottomTrack" transform="translate(192.4,16.2)">
        <path fill="none" stroke="#FFFFFF" stroke-dasharray="20,14,14,10,8,8,2,34" d="M0,0c-3.7,0-45.1,0-49,0"
          />
        <animate  dur="0.34s" 
                  repeatCount="indefinite"
                  calcMode="linear"
                  attributeName="stroke-dashoffset" 
                  values="34; 0; 34" 
                  keyTimes="0; 0.9; 1"/>
      </g>
      <path id="nozzleBottomInner" fill="#353535" stroke="#FFFFFF" stroke-linejoin="round" stroke-miterlimit="10" d="M200.4,18.4H194
        v-3.6h6.5L200.4,18.4z"/>
    </g>
    <g id="wingTop" transform="translate(9.4, 0)">
      <g>
        <animateTransform dur="20s"
                          repeatCount="indefinite"
                          calcMode="spline"
                          attributeName="transform"
                          type="scale"
                          values="1, 0.65; 1, 1; 1, 0.55"
                          keyTimes="0; 0.3; 1"
                          keySplines="0.63 0 0.4 1; 0.2 0 0.51 1"
                          additive="sum"/>
        <g transform="translate(-9.4, 0)">
          <path fill="#353535" d="M213.1-4l-10.2-12.7c-1-1.2-2.4-1.9-3.9-1.9h-3.2L202.9-4"/>
          <path fill="none" stroke="#FFFFFF" stroke-linejoin="round" stroke-miterlimit="10" d="M213.1-4l-10.2-12.7
            c-1-1.2-2.4-1.9-3.9-1.9h-3.2L202.9-4"/>
        </g>
      </g>
    </g>
    <g id="banner">
      <path id="bannerShape" fill="#353535" stroke="#FFFFFF" stroke-linejoin="round" stroke-miterlimit="10" d="M167.9,5.1
        c-25.8-16.6-51.6,17.2-77.4,0.6c0-5.7,0-11.5,0-17.2c25.8,16.6,51.6-17.2,77.4-0.6C167.9-6.4,167.9-0.7,167.9,5.1z">
        <animate attributeName="d"
                 attributeType="XML"
                 values="M167.9,5.1c-25.8-16.6-51.6,17.2-77.4,0.6c0-5.7,0-11.5,0-17.2c25.8,16.6,51.6-17.2,77.4-0.6C167.9-6.4,167.9-0.7,167.9,5.1z;
                         M167.9,5.1c-25.8-16.6-68.5,10-78.4,2.6c0-5.7,0-11.5,0-17.2c8.8,7.2,52.6-19.2,78.4-2.6C167.9-6.4,167.9-0.7,167.9,5.1z;
                         M167.9,5.1C128.4-11.2,100,0.5,91.4,5.7c0-5.7,0-11.5,0-17.2c4.4-5,38.9-16.5,76.4-0.6C167.9-6.4,167.9-0.7,167.9,5.1z;
                         M167.9,5.1C142,10.3,105-4.9,89.2-0.6c0-5.7,0-11.5,0-17.2c13.7-5.5,46.3,7.2,78.7,5.7C167.9-6.4,167.9-0.7,167.9,5.1z;
                         M167.9,5.1c-40.3,7.7-71.4-4-77.7-9.7c0-5.7,0-11.5,0-17.2c8.3,6.6,43.1,18,77.7,9.7C167.9-6.4,167.9-0.7,167.9,5.1z;
                         M167.9,5.1c-16.1-5.7-49.6,13.1-77.7-2.7c0-5.7,0-11.5,0-17.2c31.7,17.3,60.8-1.2,77.7,2.7C167.9-6.4,167.9-0.7,167.9,5.1z;
                         M167.9,5.1c-25.8-16.6-51.6,17.2-77.4,0.6c0-5.7,0-11.5,0-17.2c25.8,16.6,51.6-17.2,77.4-0.6C167.9-6.4,167.9-0.7,167.9,5.1z;"
                 dur="8s"
                 repeatCount="indefinite" />
      </path>
      <g id="word">
        <g transform="translate(106, 1.9)">
            <g>
              <animateTransform dur="8s"
                          repeatCount="indefinite"
                          calcMode="spline"
                          attributeName="transform"
                          type="translate"
                          values="0, 0; 0, -11; 0, 0"
                          keyTimes="0; 0.42; 1"
                          keySplines="0.31 0 0.64 1; 0.31 0 0.84 1"
                          additive="sum"/>
              <animateTransform dur="8s"
                          repeatCount="indefinite"
                          calcMode="spline"
                          attributeName="transform"
                          type="skewY"
                          values="0; -6; 0; 6; 0"
                          keyTimes="0; 0.2; 0.43; 0.6; 1"
                          keySplines="0.31 0 0.64 1; 0.31 0 0.64 1; 0.31 0 0.64 1; 0.31 0 0.84 1"
                          additive="sum"/>
              <path id="w" transform="translate(-106, -1.9)" fill="#FFFFFF" d="M101.6-2.7c0.4,0.1,0.8,0.1,1.1,0.2c0.1,0.4,0.3,1.3,0.6,2.6c0.2,0.9,0.4,1.8,0.7,2.7
                c0.2,0.9,0.4,1.6,0.5,2.1c0,0,0.1,0,0.1,0c0.6-2.4,1.1-4.8,1.7-7.2c0.3,0,0.6,0,0.9,0c0.6,2.4,1.1,4.8,1.7,7.2c0,0,0.1,0,0.1,0
                c0.1-0.4,0.2-1,0.4-1.9c0.2-0.8,0.4-1.7,0.6-2.5c0.4-1.7,0.7-2.7,0.7-3.1c0.4,0,0.8-0.1,1.1-0.1c-0.2,0.8-0.6,2.5-1.2,5
                c-0.3,1.3-0.5,2.3-0.7,3.1c-0.6,0.1-1.1,0.1-1.7,0.1c-0.6-2.2-1-4.1-1.2-5.4c0-0.2-0.1-0.4-0.1-0.5c0,0-0.1,0-0.1,0
                c0,0.2-0.1,0.4-0.1,0.6c-0.2,0.7-0.3,1.5-0.5,2.2c-0.2,0.7-0.4,1.8-0.8,3.2c-0.6,0-1.1-0.1-1.7-0.1
                C103.1,3.3,102.4,0.6,101.6-2.7z"/>
          </g>
        </g>
        <g transform="translate(112, 1)">
          <g>
            <animateTransform dur="8s"
                        repeatCount="indefinite"
                        calcMode="spline"
                        attributeName="transform"
                        type="translate"
                        values="0, 0; 0, -11; 0, 0.1; 0, 0"
                        keyTimes="0; 0.32; 0.98; 1"
                        keySplines="0.63 0 0.84 1; 0.31 0 0.64 1; 0.31 0 0.84 1"
                        additive="sum"/>
            <animateTransform dur="8s"
                        repeatCount="indefinite"
                        calcMode="spline"
                        attributeName="transform"
                        type="skewY"
                        values="0; 6; 15; 0"
                        keyTimes="0; 0.33; 0.75; 1"
                        keySplines="0.63 0 0.84 1; 0.31 0 0.64 1; 0.31 0 0.84 1"
                        additive="sum"/>
            <path id="e1" transform="translate(-112, -1)" fill="#FFFFFF" d="M112.8,1.1c0-1.6,0-2.9-0.1-3.9c1.8-0.3,3.7-0.7,5.6-1.2c0,0.3,0,0.6,0,0.8c-1.5,0.4-3,0.7-4.5,1
              c0,0.9,0,1.8,0,2.7c1.4-0.3,2.8-0.6,4.2-0.9c0,0.3,0,0.6,0,0.8c-1.4,0.3-2.8,0.6-4.2,0.9c0,0.9,0,1.8,0,2.7c1.5-0.3,3-0.6,4.5-1
              c0,0.3,0,0.6,0,0.8c-1.9,0.5-3.7,0.9-5.6,1.2C112.7,4,112.8,2.7,112.8,1.1z"/>
          </g>
        </g>

        <g transform="translate(122, 0)">
          <g>
            <animateTransform dur="8s"
                        repeatCount="indefinite"
                        calcMode="spline"
                        attributeName="transform"
                        type="translate"
                        values="0, 0; 0, -9; 0, 1.3; 0, 0"
                        keyTimes="0; 0.28; 0.88; 1"
                        keySplines="0.63 0 0.84 1; 0.31 0 0.64 1; 0.31 0 0.84 1"
                        additive="sum"/>
            <animateTransform dur="8s"
                        repeatCount="indefinite"
                        calcMode="spline"
                        attributeName="transform"
                        type="skewY"
                        values="0; 12; 10; 0"
                        keyTimes="0; 0.29; 0.89; 1"
                        keySplines="0.63 0 0.84 1; 0.31 0 0.64 1; 0.31 0 0.84 1"
                        additive="sum"/>
            <path id="l" transform="translate(-122, 0)" fill="#FFFFFF" d="M119.8,2.2c0-1.2,0-2,0-2.6c0-0.6,0-1.4,0-2.6c0-0.4,0-0.9,0-1.3c0.4-0.1,0.7-0.2,1.1-0.3
              c0,1.3,0,2.6,0,3.8c0,1.1,0,2.2,0,3.2c0.5-0.1,1.3-0.4,2.3-0.7c0.7-0.2,1.1-0.4,1.4-0.5c0,0.3,0,0.6-0.1,0.9
              c-1.6,0.5-3.2,1-4.8,1.4C119.8,3,119.8,2.6,119.8,2.2z"/>
          </g>
        </g> 

        <g transform="translate(128, -3)">
          <g>
            <animateTransform dur="8s"
                        repeatCount="indefinite"
                        calcMode="spline"
                        attributeName="transform"
                        type="translate"
                        values="0, 0; 0, -7.5; 0, 3; 0, 0"
                        keyTimes="0; 0.25; 0.78; 1"
                        keySplines="0.63 0 0.84 1; 0.31 0 0.84 1; 0.31 0 0.84 1"
                        additive="sum"/>
            <animateTransform dur="8s"
                        repeatCount="indefinite"
                        calcMode="spline"
                        attributeName="transform"
                        type="skewY"
                        values="0; 24; 10; 0"
                        keyTimes="0; 0.27; 0.81; 1"
                        keySplines="0.63 0 0.84 1; 0.31 0 0.84 1; 0.31 0 0.84 1"
                        additive="sum"/>
            <path id="c" transform="translate(-128, 3)" fill="#FFFFFF" d="M125.5,0.8c-0.6-0.5-0.9-1.4-0.9-2.7c0-1.3,0.3-2.4,0.9-3.3c0.6-0.9,1.5-1.5,2.6-1.9
              c1-0.3,1.7-0.3,2.3,0c0.5,0.3,0.9,0.9,1,1.8c-0.4,0.2-0.7,0.3-1.1,0.5c-0.1-0.7-0.4-1.2-0.8-1.4c-0.4-0.2-0.9-0.2-1.6,0
              c-0.6,0.2-1.1,0.5-1.5,0.9c-0.6,0.9-0.8,1.9-0.8,3.1c0,1,0.2,1.7,0.7,2.1c0.4,0.4,1.1,0.5,1.9,0.2c0.6-0.2,1-0.4,1.4-0.8
              c0.3-0.4,0.6-1,0.7-1.7c0.4-0.1,0.7-0.2,1.1-0.4c-0.2,0.9-0.5,1.7-1.1,2.8s-1.3,1.1-2.2,1.4C127,1.4,126.1,1.3,125.5,0.8z"/>
          </g>
        </g> 

        <g transform="translate(136, -5.5)">
          <g>
            <animateTransform dur="8s"
                        repeatCount="indefinite"
                        calcMode="spline"
                        attributeName="transform"
                        type="translate"
                        values="0, 0; 0, -5.5; 0, 4.5; 0, 0"
                        keyTimes="0; 0.23; 0.7; 1"
                        keySplines="0.63 0 0.84 1; 0.31 0 0.84 1; 0.31 0 0.84 1"
                        additive="sum"/>
            <animateTransform dur="8s"
                        repeatCount="indefinite"
                        calcMode="spline"
                        attributeName="transform"
                        type="skewY"
                        values="0; 14; 5; 0"
                        keyTimes="0; 0.24; 0.71; 1"
                        keySplines="0.63 0 0.84 1; 0.31 0 0.84 1; 0.31 0 0.84 1"
                        additive="sum"/>
            <path id="o" transform="translate(-136, 5.5)" fill="#FFFFFF" d="M133.3-1.7c-0.6-0.5-0.9-1.4-0.9-2.7c0-1.3,0.3-2.4,0.9-3.3c0.6-0.9,1.5-1.5,2.6-1.9
              c1.1-0.3,2-0.2,2.6,0.3c0.6,0.5,0.9,1.5,0.9,2.8c0,1.3-0.3,2.4-0.9,3.3c-0.6,0.9-1.5,1.5-2.6,1.8C134.8-1.2,134-1.2,133.3-1.7z
              M137.5-3.1c0.6-0.8,1-1.9,1-3.1c0-1-0.2-1.7-0.7-2.2s-1-0.6-1.8-0.3c-0.6,0.2-1.2,0.5-1.6,0.9c-0.6,0.8-0.9,1.8-0.9,3
              c0,0.7,0.1,1.2,0.3,1.7c0.2,0.4,0.5,0.7,0.9,0.9c0.4,0.1,0.8,0.1,1.3,0C136.6-2.5,137.1-2.8,137.5-3.1z"/>
          </g>
        </g> 

        <g transform="translate(149, -9)">
          <g>
            <animateTransform dur="8s"
                        repeatCount="indefinite"
                        calcMode="spline"
                        attributeName="transform"
                        type="translate"
                        values="0, 0; 0, -1.8; 0, 6; 0, 0"
                        keyTimes="0; 0.2; 0.66; 1"
                        keySplines="0.63 0 0.84 1; 0.31 0 0.84 1; 0.31 0 0.84 1"
                        additive="sum"/>
            <animateTransform dur="8s"
                        repeatCount="indefinite"
                        calcMode="spline"
                        attributeName="transform"
                        type="skewY"
                        values="0; 14; 5; 0"
                        keyTimes="0; 0.22; 0.68; 1"
                        keySplines="0.63 0 0.84 1; 0.31 0 0.84 1; 0.31 0 0.84 1"
                        additive="sum"/>
            <path id="m" transform="translate(-149, 9)" fill="#FFFFFF" d="M141-7.6c0-0.6,0-1.4,0-2.4c0-0.3,0-0.6,0-0.9c0.6-0.1,1.1-0.3,1.7-0.4c0.8,2.1,1.6,4.1,2.4,6.2
              c0,0,0.1,0,0.1,0c0.8-2.4,1.6-4.7,2.4-7c0.6-0.1,1.1-0.1,1.7-0.2c0,1.5,0,2.6,0,3.3c0,1.6,0,3.1,0.1,4.6c-0.3,0-0.7,0.1-1,0.1
              c0-0.8,0-2,0-3.7c0-0.7,0-1.8,0-3.1c0,0-0.1,0-0.1,0c-0.8,2.4-1.7,4.7-2.5,7.2c-0.3,0.1-0.7,0.1-1,0.2c-0.8-2.1-1.7-4.2-2.5-6.3
              c0,0-0.1,0-0.1,0c0,0.3,0,0.6,0,1c0,1,0,1.7,0,2.2c0,0.8,0,1.7,0,2.5c0,0.4,0,0.8,0,1.2c-0.3,0.1-0.7,0.2-1,0.2
              C141-5,141-6.6,141-7.6z"/>
          </g>
        </g>   

        <g transform="translate(156, -7.5)">
          <g>
            <animateTransform dur="8s"
                        repeatCount="indefinite"
                        calcMode="spline"
                        attributeName="transform"
                        type="translate"
                        values="0, 0; 0, -1; 0, 6; 0, 0"
                        keyTimes="0; 0.2; 0.65; 1"
                        keySplines="0.63 0 0.84 1; 0.31 0 0.84 1; 0.31 0 0.84 1"
                        additive="sum"/>
            <animateTransform dur="8s"
                        repeatCount="indefinite"
                        calcMode="spline"
                        attributeName="transform"
                        type="skewY"
                        values="0; 2; -10; 0"
                        keyTimes="0; 0.2; 0.65; 1"
                        keySplines="0.63 0 0.84 1; 0.31 0 0.84 1; 0.31 0 0.84 1"
                        additive="sum"/>
            <path transform="translate(-156, 7.5)" id="e2" fill="#FFFFFF" d="M151.2-8.4c0-1.6,0-2.9-0.1-4c1.8,0,3.7,0.1,5.6,0.4c0,0.3,0,0.6,0,0.8c-1.5-0.2-3-0.4-4.5-0.4
              c0,0.9,0,1.8,0,2.7c1.4,0,2.8,0.1,4.2,0.3c0,0.3,0,0.6,0,0.8c-1.4-0.2-2.8-0.3-4.2-0.4c0,0.9,0,1.8,0,2.7c1.5,0,3,0.1,4.5,0.4
              c0,0.3,0,0.6,0,0.8c-1.9-0.3-3.7-0.4-5.6-0.4C151.1-5.5,151.2-6.8,151.2-8.4z"/>
          </g>
        </g>
      </g>
    </g>
    <path id="rope" fill="none" stroke="#FFFFFF" stroke-linejoin="round" stroke-miterlimit="10" d="M167.9-3.2h13"/>
    <path id="body" fill="#353535" stroke="#FFFFFF" stroke-linejoin="round" stroke-miterlimit="10" d="M202.8,5.6l24.5,0
      c1.7,0,3.1-1.4,3.1-3.1c0-2.3-9.2-6.4-11.6-6.5L216.4-4h-28.7l-2.3-6.1h-4.5V-4v1.9c0,1.6,1,3,2.5,3.4c4.3,1.5,10.4,4.3,15.1,4.3
      H202.8"/>
    <g id="wingBottom" transform="translate(9.4, 0)">
      <g>
        <animateTransform dur="20s"
                          repeatCount="indefinite"
                          calcMode="spline"
                          attributeName="transform"
                          type="scale"
                          values="1, 0.65; 1, 1; 1, 0.55"
                          keyTimes="0; 0.3; 1"
                          keySplines="0.63 0 0.4 1; 0.2 0 0.51 1"
                          additive="sum"/>
        <g transform="translate(-9.4, 0)">
          <path fill="#353535" stroke="#FFFFFF" stroke-linejoin="round" stroke-miterlimit="10" d="M199,20h-3.2l9-18.3
            h11.1l-12.9,16.4C202,19.3,200.5,20,199,20z"/>
        </g>
      </g>
    </g>
  </g>
</svg>
