<svg width="45" height="45" viewBox="0 0 45 45" fill="none" xmlns="http://www.w3.org/2000/svg">
  <path d="M45 22.5016L35.3607 25.5156L42.7748 32.5175L32.8159 30.9325L36.5307 40.5411L28.2228 34.6945L27.5028 45L22.5 36.028L17.4972 45L16.7772 34.6945L8.46931 40.5411L12.1841 30.9325L2.22517 32.5175L9.63931 25.5156L0 22.5016L9.63931 19.4844L2.22517 12.4857L12.1841 14.0707L8.46931 4.46213L16.7772 10.3087L17.4972 0L22.5 8.97518L27.5028 0L28.2228 10.3087L36.5307 4.46213L32.8159 14.0707L42.7748 12.4857L35.3607 19.4844L45 22.5016Z" fill="#C78FFF"/>
</svg>
