<svg width="25" height="22" viewBox="0 0 25 22" fill="none" xmlns="http://www.w3.org/2000/svg">
  <path d="M23.8127 8.39418H1.18042C1.18042 4.21733 4.56421 0.834473 8.74218 0.834473H16.251C20.429 0.834473 23.8127 4.22215 23.8127 8.39418Z" fill="currentColor"/>
  <path d="M18.34 21.2994H6.6532C3.63042 21.2994 1.18042 18.8501 1.18042 15.8281H23.8127C23.8127 18.8501 21.3628 21.2994 18.34 21.2994Z" fill="currentColor"/>
  <path d="M1.18042 10.5547H23.8127" stroke="currentColor" stroke-miterlimit="10"/>
  <path d="M0.218262 12.0654C3.28917 12.0654 3.28918 14.3175 6.36009 14.3175C9.431 14.3175 9.431 12.0654 12.5019 12.0654C15.5728 12.0654 15.5728 14.3175 18.6437 14.3175C21.7146 14.3175 21.7146 12.0654 24.7856 12.0654" stroke="currentColor" stroke-miterlimit="10"/>
</svg>
