<svg width="1240" height="482" viewBox="0 0 1240 482" fill="none" xmlns="http://www.w3.org/2000/svg">
  <path d="M371.116 144.087V108.277" stroke="white" stroke-miterlimit="10"/>
  <path d="M379.853 104.443C380.006 103.64 380.048 102.796 379.964 101.923C379.559 97.615 376.005 94.187 371.689 93.9147C366.521 93.5935 362.233 97.6849 362.233 102.782C362.233 103.235 362.268 103.675 362.331 104.115C362.729 106.768 362.212 109.505 360.599 111.662C358.769 114.106 357.777 117.213 358.043 120.557C358.552 126.967 363.769 132.126 370.187 132.573C377.848 133.104 384.231 127.043 384.231 119.496C384.231 116.557 383.268 113.848 381.634 111.662C380.083 109.582 379.371 106.992 379.853 104.443Z" stroke="white" stroke-miterlimit="10"/>
  <path d="M564.116 253.922V218.112" stroke="white" stroke-miterlimit="10"/>
  <path d="M572.853 214.279C573.006 213.476 573.048 212.631 572.964 211.758C572.559 207.45 569.005 204.022 564.689 203.75C559.521 203.429 555.233 207.52 555.233 212.617C555.233 213.071 555.268 213.511 555.331 213.951C555.729 216.604 555.212 219.341 553.599 221.498C551.769 223.942 550.777 227.048 551.043 230.393C551.552 236.802 556.769 241.962 563.187 242.409C570.848 242.939 577.231 236.879 577.231 229.332C577.231 226.392 576.268 223.683 574.634 221.498C573.083 219.417 572.371 216.827 572.853 214.279Z" stroke="white" stroke-miterlimit="10"/>
  <path d="M565.594 455.46V419.65" stroke="white" stroke-miterlimit="10"/>
  <path d="M574.331 415.817C574.485 415.014 574.527 414.169 574.443 413.296C574.038 408.989 570.483 405.56 566.167 405.288C561 404.967 556.712 409.058 556.712 414.155C556.712 414.609 556.746 415.049 556.809 415.489C557.207 418.142 556.691 420.879 555.077 423.036C553.248 425.48 552.256 428.587 552.521 431.931C553.031 438.34 558.248 443.5 564.666 443.947C572.327 444.477 578.71 438.417 578.71 430.87C578.71 427.93 577.746 425.221 576.112 423.036C574.562 420.955 573.85 418.365 574.331 415.817Z" stroke="white" stroke-miterlimit="10"/>
  <path d="M843.08 182.19V146.38" stroke="white" stroke-miterlimit="10"/>
  <path d="M851.817 142.546C851.971 141.743 852.013 140.899 851.929 140.026C851.524 135.718 847.969 132.29 843.653 132.018C838.485 131.697 834.197 135.788 834.197 140.885C834.197 141.338 834.232 141.778 834.295 142.218C834.693 144.871 834.176 147.608 832.563 149.766C830.733 152.209 829.741 155.316 830.007 158.66C830.517 165.07 835.734 170.229 842.152 170.676C849.813 171.207 856.196 165.146 856.196 157.599C856.196 154.66 855.232 151.951 853.598 149.766C852.048 147.685 851.335 145.095 851.817 142.546Z" stroke="white" stroke-miterlimit="10"/>
  <path d="M843.116 316.19V280.38" stroke="white" stroke-miterlimit="10"/>
  <path d="M851.853 276.546C852.006 275.743 852.048 274.899 851.964 274.026C851.559 269.718 848.005 266.29 843.689 266.018C838.521 265.697 834.233 269.788 834.233 274.885C834.233 275.338 834.268 275.778 834.331 276.218C834.729 278.871 834.212 281.608 832.599 283.766C830.769 286.209 829.777 289.316 830.043 292.66C830.552 299.07 835.769 304.229 842.187 304.676C849.848 305.207 856.231 299.146 856.231 291.599C856.231 288.66 855.268 285.951 853.634 283.766C852.083 281.685 851.371 279.095 851.853 276.546Z" stroke="white" stroke-miterlimit="10"/>
  <path d="M627.388 101.19V65.3799" stroke="white" stroke-miterlimit="10"/>
  <path d="M636.125 61.5463C636.279 60.7434 636.321 59.8986 636.237 59.0259C635.832 54.7181 632.277 51.29 627.961 51.0177C622.793 50.6965 618.505 54.7879 618.505 59.8846C618.505 60.3384 618.54 60.7783 618.603 61.2182C619.001 63.8712 618.484 66.6081 616.871 68.7655C615.041 71.2091 614.05 74.3161 614.315 77.6604C614.825 84.0697 620.042 89.2293 626.46 89.6761C634.121 90.2067 640.504 84.1465 640.504 76.5991C640.504 73.6598 639.54 70.9508 637.906 68.7655C636.356 66.6849 635.643 64.0947 636.125 61.5463Z" stroke="white" stroke-miterlimit="10"/>
  <path d="M400.482 144.086V134.877" stroke="white" stroke-miterlimit="10"/>
  <path d="M398.625 98.0691L389.357 134.877H411.608L402.34 98.0691C401.858 96.1352 399.114 96.1352 398.625 98.0691Z" stroke="white" stroke-miterlimit="10" stroke-linejoin="round"/>
  <path d="M598.329 253.786V244.577" stroke="white" stroke-miterlimit="10"/>
  <path d="M596.472 207.769L587.204 244.577H609.454L600.187 207.769C599.705 205.835 596.961 205.835 596.472 207.769Z" stroke="white" stroke-miterlimit="10" stroke-linejoin="round"/>
  <path d="M599.808 455.325V446.116" stroke="white" stroke-miterlimit="10"/>
  <path d="M597.951 409.307L588.683 446.116H610.933L601.666 409.307C601.184 407.373 598.439 407.373 597.951 409.307Z" stroke="white" stroke-miterlimit="10" stroke-linejoin="round"/>
  <path d="M872.447 182.189V172.98" stroke="white" stroke-miterlimit="10"/>
  <path d="M870.589 136.172L861.322 172.98H883.572L874.305 136.172C873.823 134.238 871.078 134.238 870.589 136.172Z" stroke="white" stroke-miterlimit="10" stroke-linejoin="round"/>
  <path d="M656.755 101.189V91.9805" stroke="white" stroke-miterlimit="10"/>
  <path d="M654.898 55.1722L645.63 91.9804H667.88L658.613 55.1722C658.131 53.2382 655.386 53.2382 654.898 55.1722Z" stroke="white" stroke-miterlimit="10" stroke-linejoin="round"/>

  <path d="M1223.68 377C1223.68 379.888 1221.34 382.226 1218.45 382.226C1215.57 382.226 1213.23 379.888 1213.23 377" stroke="white" stroke-miterlimit="10"/>
  <path d="M1239.36 382.226C1236.47 382.226 1234.14 379.888 1234.14 377" stroke="white" stroke-miterlimit="10"/>
  <path d="M1213.23 377C1213.23 379.888 1210.89 382.226 1208 382.226" stroke="white" stroke-miterlimit="10"/>
  <path d="M1234.14 377C1234.14 379.888 1231.8 382.226 1228.91 382.226C1226.02 382.226 1223.68 379.888 1223.68 377" stroke="white" stroke-miterlimit="10"/>
  <path d="M1223.68 383.97C1223.68 386.858 1221.34 389.196 1218.45 389.196C1215.57 389.196 1213.23 386.858 1213.23 383.97" stroke="white" stroke-miterlimit="10"/>
  <path d="M1239.36 389.196C1236.47 389.196 1234.14 386.858 1234.14 383.97" stroke="white" stroke-miterlimit="10"/>
  <path d="M1213.23 383.97C1213.23 386.858 1210.89 389.196 1208 389.196" stroke="white" stroke-miterlimit="10"/>
  <path d="M1234.14 383.97C1234.14 386.858 1231.8 389.196 1228.91 389.196C1226.02 389.196 1223.68 386.858 1223.68 383.97" stroke="white" stroke-miterlimit="10"/>
  <path d="M1085.68 469C1085.68 471.888 1083.34 474.226 1080.45 474.226C1077.57 474.226 1075.23 471.888 1075.23 469" stroke="white" stroke-miterlimit="10"/>
  <path d="M1101.36 474.226C1098.47 474.226 1096.14 471.888 1096.14 469" stroke="white" stroke-miterlimit="10"/>
  <path d="M1075.23 469C1075.23 471.888 1072.89 474.226 1070 474.226" stroke="white" stroke-miterlimit="10"/>
  <path d="M1096.14 469C1096.14 471.888 1093.8 474.226 1090.91 474.226C1088.02 474.226 1085.68 471.888 1085.68 469" stroke="white" stroke-miterlimit="10"/>
  <path d="M1085.68 475.97C1085.68 478.858 1083.34 481.196 1080.45 481.196C1077.57 481.196 1075.23 478.858 1075.23 475.97" stroke="white" stroke-miterlimit="10"/>
  <path d="M1101.36 481.196C1098.47 481.196 1096.14 478.858 1096.14 475.97" stroke="white" stroke-miterlimit="10"/>
  <path d="M1075.23 475.97C1075.23 478.858 1072.89 481.196 1070 481.196" stroke="white" stroke-miterlimit="10"/>
  <path d="M1096.14 475.97C1096.14 478.858 1093.8 481.196 1090.91 481.196C1088.02 481.196 1085.68 478.858 1085.68 475.97" stroke="white" stroke-miterlimit="10"/>

  <path d="M343 64L376 64" stroke="white" stroke-miterlimit="10"/>
  <path d="M323 64L335 64" stroke="white" stroke-miterlimit="10"/>
  <path d="M328 58.6306H345.859C345.859 53.8668 349.726 50 354.49 50C359.254 50 363.126 53.8668 363.126 58.6306H370.364" stroke="white" stroke-miterlimit="10"/>
  <path d="M950.889 92.1006H986.051" stroke="white" stroke-miterlimit="10"/>
  <path d="M938 86.6306H955.859C955.859 81.8668 959.726 78 964.49 78C969.254 78 973.126 81.8668 973.126 86.6306H995.751" stroke="white" stroke-miterlimit="10"/>
  <g clip-path="url(#clip0)">
    <path d="M1095.82 433.39C1096.28 433.334 1096.74 433.302 1097.21 433.302C1102.68 433.302 1107.26 437.004 1108.6 442.017C1108.08 442.793 1107.44 443.464 1106.68 444.008C1105.4 444.935 1103.83 445.495 1102.13 445.495C1099.63 445.495 1097.43 444.32 1096.01 442.497C1091.72 443.976 1088.56 447.838 1088.14 452.499C1086.44 450.468 1085.42 447.862 1085.42 445.015C1085.42 439.011 1089.97 434.078 1095.82 433.39Z" stroke="white" stroke-miterlimit="10" stroke-linejoin="round"/>
    <path d="M1098.74 433.302C1098.74 433.302 1095.76 428.313 1085.94 434.502C1085.94 434.502 1088.97 435.685 1088.73 436.884" stroke="white" stroke-miterlimit="10" stroke-linejoin="round"/>
    <path d="M1087.5 452.499H1088.01H1088.13H1088.64C1090.9 452.499 1092.73 454.322 1092.73 456.561V457.592C1090.42 457.592 1088.5 455.961 1088.06 453.794C1087.62 455.961 1085.7 457.592 1083.39 457.592V456.561C1083.4 454.322 1085.24 452.499 1087.5 452.499Z" stroke="white" stroke-miterlimit="10" stroke-linejoin="round"/>
    <path d="M1093.33 439.931L1090.65 442.569C1090.65 442.569 1092.29 444.056 1096.01 442.497" stroke="white" stroke-miterlimit="10" stroke-linecap="round" stroke-linejoin="round"/>
  </g>
  <defs>
    <clipPath id="clip0">
      <rect width="26" height="27" transform="matrix(-1 0 0 1 1109 431)" fill="white"/>
    </clipPath>
  </defs>
</svg>
