<svg width="37" height="23" viewBox="0 0 37 23" fill="none" xmlns="http://www.w3.org/2000/svg">
<mask id="path-1-inside-1" fill="white">
<path fill-rule="evenodd" clip-rule="evenodd" d="M0.5 11.5773C3.99984 5.24046 10.7487 0.94873 18.4999 0.94873C26.2512 0.94873 33 5.24046 36.4999 11.5773C33 17.9141 26.2512 22.2059 18.4999 22.2059C10.7487 22.2059 3.99984 17.9141 0.5 11.5773Z"/>
</mask>
<path d="M0.5 11.5773L-0.375364 11.0938L-0.642382 11.5773L-0.375364 12.0608L0.5 11.5773ZM36.4999 11.5773L37.3752 12.0608L37.6423 11.5773L37.3752 11.0938L36.4999 11.5773ZM1.37536 12.0608C4.70631 6.02973 11.1272 1.94873 18.4999 1.94873V-0.0512695C10.3702 -0.0512695 3.29337 4.4512 -0.375364 11.0938L1.37536 12.0608ZM18.4999 1.94873C25.8726 1.94873 32.2936 6.02972 35.6245 12.0608L37.3752 11.0938C33.7065 4.4512 26.6297 -0.0512695 18.4999 -0.0512695V1.94873ZM35.6245 11.0938C32.2936 17.1249 25.8726 21.2059 18.4999 21.2059V23.2059C26.6297 23.2059 33.7065 18.7034 37.3752 12.0608L35.6245 11.0938ZM18.4999 21.2059C11.1272 21.2059 4.70631 17.1249 1.37536 11.0938L-0.375364 12.0608C3.29337 18.7034 10.3702 23.2059 18.4999 23.2059V21.2059Z" fill="currentColor" mask="url(#path-1-inside-1)"/>
<circle cx="18.4998" cy="11.4482" r="7" stroke="currentColor"/>
</svg>
