<svg width="27" height="27" viewBox="0 0 27 27" fill="none" xmlns="http://www.w3.org/2000/svg">
<path d="M13.5 26C20.4036 26 26 20.4035 26 13.5C26 6.59643 20.4036 1 13.5 1C6.59644 1 1 6.59643 1 13.5C1 20.4035 6.59644 26 13.5 26Z" stroke="currentColor" stroke-miterlimit="10"/>
<path d="M13.5 26C16.1205 26 18.2449 20.4035 18.2449 13.5C18.2449 6.59643 16.1205 1 13.5 1C10.8795 1 8.75513 6.59643 8.75513 13.5C8.75513 20.4035 10.8795 26 13.5 26Z" stroke="currentColor" stroke-miterlimit="10"/>
<path d="M1 13.5H26" stroke="currentColor" stroke-miterlimit="10"/>
<path d="M2.57263 7.60107H24.4274" stroke="currentColor" stroke-miterlimit="10"/>
<path d="M2.57263 19.3989H24.4274" stroke="currentColor" stroke-miterlimit="10"/>
</svg>
