<svg version="1.1" xmlns="http://www.w3.org/2000/svg" xmlns:xlink="http://www.w3.org/1999/xlink" x="0px" y="0px"
  viewBox="0 0 100 170" preserveAspectRatio="xMinYMin meet">
  <g transform="rotate(-61,35,-8)">
    <g id="fish">
      <g >
        <g id="finTop">
          <path fill="#353535" stroke="#FFFFFF" stroke-linejoin="round" stroke-miterlimit="10" d="m 6.3,-7.1 c 0,0 -0.5,-5.8 -12.0,-4.4 0,0 2.1,2.3 1.4,3.3 -0.2,0.4 11.4,3.7 10.5,1.1 z"/>
        </g>
        <path id="body" fill="#353535" stroke="#FFFFFF" stroke-linejoin="round" stroke-miterlimit="10" d="M-0.7-8.7
          c0.5,0,0.9,0,1.4,0.1c5.4,0.8,10.2,3.3,11.6,8.2c-0.5,0.8-1.1,1.5-1.9,2C9.3,2.6,7.7,3.2,6,3.3c-2.5,0.1-4.7-1-6.2-2.8
          c-4.1-2.2-12.5-4.6-17.2-5.3C-15-6.3-12.4-7.5-9.6-8C-7-8.5-4.5-9-0.7-8.7z">
        </path>
        <g id="tail" transform="rotate(77,-6.8,-1.5)">
          <path fill="#353535" stroke="#FFFFFF" stroke-linejoin="round" stroke-miterlimit="10" d="m -13.1,9.8 h 0.5 0.1 0.5 c 2.2,0 4.0,1.7 4.0,4.0 v 1 c -2.2,0 -4.1,-1.6 -4.6,-3.8 -0.4,2.2 -2.4,3.8 -4.7,3.8 v -1 c 0.1,-2.3 1.9,-4.0 4.2,-4.0 z"/>
            <circle id="patch" cx="-12.6" cy="8.6" r="1" fill="#FFFFFF" />
        </g>
        <g id="fin">
          <path fill="none" stroke="#FFFFFF" stroke-linecap="round" stroke-linejoin="round" stroke-miterlimit="10" d="M 0.1,-3.1 -3.5,-3.7 c 0,0 -0.2,2.1 3.3,4.2"/>
        </g>
        </g>
      </g>
    </g>
    <g id="waves1">
      <g transform="translate(15.7, 57)">
        <g>
          <path fill="none" stroke="#FFFFFF" stroke-miterlimit="10" stroke-dasharray="25,30" d="M0,0
            c0,2.9-2.3,5.2-5.2,5.2c-2.9,0-5.2-2.3-5.2-5.2c0,2.9-2.3,5.2-5.2,5.2"/>
        </g>
      </g>
      <g transform="translate(15.7, 57) scale(-1, 1)">
        <g>
          <path fill="none" stroke="#FFFFFF" stroke-miterlimit="10" stroke-dasharray="25,30" d="M0,0
            c0,2.9-2.3,5.2-5.2,5.2c-2.9,0-5.2-2.3-5.2-5.2c0,2.9-2.3,5.2-5.2,5.2"/>
        </g>
      </g>
      <g transform="translate(15.7, 63.8)">
        <g>
          <path fill="none" stroke="#FFFFFF" stroke-miterlimit="10" stroke-dasharray="25,30" d="M0,0
            c0,2.9-2.3,5.2-5.2,5.2c-2.9,0-5.2-2.3-5.2-5.2c0,2.9-2.3,5.2-5.2,5.2"/>
        </g>
      </g>
      <g transform="translate(15.7, 63.8) scale(-1, 1)">
        <g>
          <path fill="none" stroke="#FFFFFF" stroke-miterlimit="10" stroke-dasharray="25,30" d="M0,0
            c0,2.9-2.3,5.2-5.2,5.2c-2.9,0-5.2-2.3-5.2-5.2c0,2.9-2.3,5.2-5.2,5.2"/>
        </g>
      </g>
    </g>
</svg>

