<svg xmlns="http://www.w3.org/2000/svg" viewBox="-10 0 74.61 50.69">
  <g id="tree1" transform="translate(-10, 0)">
    <path d="M23.6,50.7V14.9" fill="none" stroke="#fff" stroke-miterlimit="10"/>
    <path
      d="M 32.4 11.1 C 33.3 6.3 30.2 1.6 25.3 0.7 C 20.4 -0.2 15.8 2.9 14.9 7.8 C 14.8 8.4 14.7 8.9 14.7 9.5 C 14.7 9.9 14.7 10.4 14.8 10.8 C 15.3 13.4 14.6 16.2 13.1 18.4 C 8.8 24.2 10 32.4 15.8 36.7 C 21.6 41 29.8 39.8 34.1 34 C 37.6 29.3 37.6 23 34.1 18.3 C 32.5 16.2 31.9 13.6 32.4 11.1 Z"
      fill="none" stroke="#fff" stroke-miterlimit="10">
    </path>
  </g>


  <g id="tree2" transform="translate(0, 41)">
    <path d="M82.4,9.19V0" transform="translate(-39.42 0.5)" fill="none" stroke="#fff" stroke-miterlimit="10"/>
    <g>
      <path d="M80.54,4.17L71.28,41H93.53L84.26,4.17A1.91,1.91,0,0,0,80.54,4.17Z" transform="translate(-39.42 -40.5)"
            fill="none" stroke="#fff" stroke-linejoin="round"/>
    </g>
  </g>
</svg>
