
<svg version="1.1" xmlns="http://www.w3.org/2000/svg" xmlns:xlink="http://www.w3.org/1999/xlink" x="0px" y="0px"
	 viewBox="0 0 100 170" preserveAspectRatio="xMinYMin meet">
  <defs>
    <path id="leapPath" fill="none" stroke="#FFFFFF" stroke-linecap="round" stroke-linejoin="round" stroke-miterlimit="10" d="M17.9,76.1c0.3-7.3,0.5-46,7.9-46c11.6,0,13.4,39.9,14.4,59.7"/>
    <path id="wavesClipShape" d="M57.9-1.6l0.4,63.8c-2.9,0-5.2-2.3-5.2-5.2c0,2.9-2.3,5.2-5.2,5.2c-2.9,0-5.2-2.3-5.2-5.2
				c0,2.9-2.3,5.2-5.2,5.2c-2.9,0-5.2-2.3-5.2-5.2c0,2.1-1.3,3.9-3,4.7c-1.8-0.8-3-2.6-3-4.7c0,2.9-2.3,5.2-5.2,5.2
				c-2.9,0-5.2-2.3-5.2-5.2c0,2.9-2.3,5.2-5.2,5.2c-2.9,0-5.2-2.3-5.2-5.2c0,2.9-2.3,5.2-5.2,5.2L-0.5-1L57.9-1.6z"/>
  </defs>
  <clipPath id="wavesClipPath">
    <use xlink:href="#wavesClipShape" overflow="visible"/>
  </clipPath>

  <g id="fishClip" clip-path="url(#wavesClipPath)">
    <g id="fish">
      <animateMotion
        id="leapMotion"
        dur="6s"
        repeatCount="indefinite"
        calcMode="spline"
        keyPoints="0; 0.45; 1; 1" 
        keyTimes="0; 0.27; 0.5; 1"
        keySplines="0.39 0 0.35 0.91; 0.97 0.09 0.58 1; 0 0 1 1">
        <mpath href="#leapPath"/>
      </animateMotion>
      <g>
        <animateTransform dur="6s"
                        repeatCount="indefinite"
                        calcMode="spline"
                        attributeName="transform"
                        type="rotate"
                        values="-88; -80; 70; 75; 75"
                        keyTimes="0; 0.185; 0.25; 0.5; 1"
                        keySplines="0 0 1 1; 0 0 1 1; 0 0 1 1; 0 0 1 1"
                        additive="sum"/>
        
        <g id="finTop">
          <animateTransform dur="6s"
                        repeatCount="indefinite"
                        calcMode="spline"
                        attributeName="transform"
                        type="rotate"
                        values="43; 40; 0; 40; 43; 43"
                        keyTimes="0; 0.2; 0.225; 0.25; 0.5; 1"
                        keySplines="0 0 1 1; 0 0 1 1; 0 0 1 1; 0 0 1 1; 0 0 1 1"
                        additive="sum"/>
          <path fill="#353535" stroke="#FFFFFF" stroke-linejoin="round" stroke-miterlimit="10" d="M2.7-8.7c0,0-3-5-12.8,1.2
            c0,0,3,1.2,2.8,2.4C-7.3-4.6,4.6-6.7,2.7-8.7z"/>
        </g>
        <path id="body" fill="#353535" stroke="#FFFFFF" stroke-linejoin="round" stroke-miterlimit="10" d="M-0.7-8.7
                        c0.5,0,0.9,0,1.4,0.1c5.4,0.8,10.2,3.3,11.6,8.2c-0.5,0.8-1.1,1.5-1.9,2C9.3,2.6,7.7,3.2,6,3.3c-2.5,0.1-4.7-1-6.2-2.8
                        c-4.1-2.2-12.5-4.6-17.2-5.3C-15-6.3-12.4-7.5-9.6-8C-7-8.5-4.5-9-0.7-8.7z">
          <animate  attributeName="d"
                    attributeType="XML"
                    values="
                      M-0.7-8.7
                        c0.5,0,0.9,0,1.4,0.1c5.4,0.8,10.2,3.3,11.6,8.2c-0.5,0.8-1.1,1.5-1.9,2C9.3,2.6,7.7,3.2,6,3.3c-2.5,0.1-4.7-1-6.2-2.8
                        c-4.1-2.2-12.5-4.6-17.2-5.3C-15-6.3-12.4-7.5-9.6-8C-7-8.5-4.5-9-0.7-8.7z;
                      M-0.7-8.7
                        c0.5,0,0.9,0,1.4,0.1c5.4,0.8,10.2,3.3,11.6,8.2c-0.5,0.8-1.1,1.5-1.9,2C9.3,2.6,7.7,3.2,6,3.3c-2.5,0.1-4.7-1-6.2-2.8
                        c-4.1-2.2-12.5-4.6-17.2-5.3C-15-6.3-12.4-7.5-9.6-8C-7-8.5-4.5-9-0.7-8.7z;
                      M-0.2-8.6
                        c0.5-0.1,0.9-0.1,1.4-0.1C6.7-8.7,11.3-5,12.6,0c-0.5,0.8-1.2,1.4-1.9,2C9.4,2.9,7.8,3.5,6.1,3.5c-2.5,0-4.7-1.2-6.1-3
                        c-4.3,1.5-7.5,5.3-7.9,10c-1.7-2-2.7-4.6-2.7-7.5C-10.6-3-6-7.9-0.2-8.6z;
                      M-0.7-8.7
                        c0.5,0,0.9,0,1.4,0.1c5.4,0.8,10.2,3.3,11.6,8.2c-0.5,0.8-1.1,1.5-1.9,2C9.3,2.6,7.7,3.2,6,3.3c-2.5,0.1-4.7-1-6.2-2.8
                        c-4.1-2.2-12.5-4.6-17.2-5.3C-15-6.3-12.4-7.5-9.6-8C-7-8.5-4.5-9-0.7-8.7z;
                      M-0.7-8.7
                        c0.5,0,0.9,0,1.4,0.1c5.4,0.8,10.2,3.3,11.6,8.2c-0.5,0.8-1.1,1.5-1.9,2C9.3,2.6,7.7,3.2,6,3.3c-2.5,0.1-4.7-1-6.2-2.8
                        c-4.1-2.2-12.5-4.6-17.2-5.3C-15-6.3-12.4-7.5-9.6-8C-7-8.5-4.5-9-0.7-8.7z
                      "
                    calcMode="spline"
                    keyTimes="0; 0.125; 0.25; 0.375; 1"
                    keySplines="0 0 1 1; 1 0 0.29 0.29; 0.58 0.58 0 1; 0 0 1 1"
                    dur="6s"
                    repeatCount="indefinite" />
        </path>
        <g id="tail">
          <animateTransform dur="6s"
                        repeatCount="indefinite"
                        calcMode="spline"
                        attributeName="transform"
                        type="rotate"
                        values="70; 69; 0; 71; 72"
                        keyTimes="0; 0.125; 0.25; 0.375; 1"
                        keySplines="0 0 1 1; 1 0 0.29 0.29; 0.58 0.58 0 1; 0 0 1 1"
                        additive="sum"/>
          <animateTransform dur="6s"
                        repeatCount="indefinite"
                        calcMode="spline"
                        attributeName="transform"
                        type="translate"
                        values="-1.6, 3.6; -1.6, 3.6; 0, 0; -1.5, 3.8; -1.5, 3.8"
                        keyTimes="0; 0.125; 0.25; 0.375; 1"
                        keySplines="0 0 1 1; 1 0 0.29 0.29; 0.58 0.58 0 1; 0 0 1 1"
                        additive="sum"/>
          <path fill="#353535" stroke="#FFFFFF" stroke-linejoin="round" stroke-miterlimit="10" d="M-8.5,10.5H-8h0.1h0.5
            c2.3,0,4.1,1.8,4.1,4.1v1c-2.3,0-4.2-1.6-4.7-3.8c-0.4,2.2-2.4,3.8-4.7,3.8v-1C-12.6,12.3-10.8,10.5-8.5,10.5z"/>
          <circle id="patch" cx="-8" cy="8.8" r="1" fill="#FFFFFF" />
        </g>
        <g id="fin">
          <animateTransform dur="6s"
                        repeatCount="indefinite"
                        calcMode="spline"
                        attributeName="transform"
                        type="rotate"
                        values="83; 40; 0; 40; 83; 82"
                        keyTimes="0; 0.2; 0.225; 0.25; 0.5; 1"
                        keySplines="0 0 1 1; 0 0 1 1; 0 0 1 1; 0 0 1 1; 0 0 1 1"
                        additive="sum"/>
          <path fill="none" stroke="#FFFFFF" stroke-linecap="round" stroke-linejoin="round" stroke-miterlimit="10" d="M-2.7-2.1
            l-2.7,2.6c0,0,1.6,1.5,5.4-0.1"/>
        </g>
      </g>
    </g>
	</g>

	<g id="waves1">
    <g transform="translate(15.7, 57)">
      <g>
        <path fill="none" stroke="#FFFFFF" stroke-miterlimit="10" stroke-dasharray="25,30" d="M0,0
          c0,2.9-2.3,5.2-5.2,5.2c-2.9,0-5.2-2.3-5.2-5.2c0,2.9-2.3,5.2-5.2,5.2"/>
        <animate  dur="6s" 
                  repeatCount="indefinite"
                  calcMode="spline"
                  attributeName="stroke-dashoffset" 
                  values="25.5; 0; -30; -30" 
                  keyTimes="0; 0.15; 0.4; 1"
                  keySplines="0.37 0.09 0.04 0.73; 0.37 0.09 0.04 0.73; 0 0 1 1"/>
      </g>
    </g>
    <g transform="translate(15.7, 57) scale(-1, 1)">
      <g>
        <path fill="none" stroke="#FFFFFF" stroke-miterlimit="10" stroke-dasharray="25,30" d="M0,0
          c0,2.9-2.3,5.2-5.2,5.2c-2.9,0-5.2-2.3-5.2-5.2c0,2.9-2.3,5.2-5.2,5.2"/>
        <animate  dur="6s" 
                  repeatCount="indefinite"
                  calcMode="spline"
                  attributeName="stroke-dashoffset" 
                  values="25.5; 0; -30; -30" 
                  keyTimes="0; 0.15; 0.4; 1"
                  keySplines="0.37 0.09 0.04 0.73; 0.37 0.09 0.04 0.73; 0 0 1 1"/>
      </g>
    </g>
    <g transform="translate(15.7, 63.8)">
      <g>
        <path fill="none" stroke="#FFFFFF" stroke-miterlimit="10" stroke-dasharray="25,30" d="M0,0
          c0,2.9-2.3,5.2-5.2,5.2c-2.9,0-5.2-2.3-5.2-5.2c0,2.9-2.3,5.2-5.2,5.2"/>
        <animate  dur="6s" 
                  repeatCount="indefinite"
                  calcMode="spline"
                  attributeName="stroke-dashoffset" 
                  values="25.5; 0; -30; -30" 
                  keyTimes="0; 0.15; 0.4; 1"
                  keySplines="0.37 0.09 0.04 0.73; 0.37 0.09 0.04 0.73; 0 0 1 1"/>
      </g>
    </g>
    <g transform="translate(15.7, 63.8) scale(-1, 1)">
      <g>
        <path fill="none" stroke="#FFFFFF" stroke-miterlimit="10" stroke-dasharray="25,30" d="M0,0
          c0,2.9-2.3,5.2-5.2,5.2c-2.9,0-5.2-2.3-5.2-5.2c0,2.9-2.3,5.2-5.2,5.2"/>
        <animate  dur="6s" 
                  repeatCount="indefinite"
                  calcMode="spline"
                  attributeName="stroke-dashoffset" 
                  values="25.5; 0; -30; -30" 
                  keyTimes="0; 0.15; 0.4; 1"
                  keySplines="0.37 0.09 0.04 0.73; 0.37 0.09 0.04 0.73; 0 0 1 1"/>
      </g>
    </g>
	</g>

	<g id="waves2">
		<g transform="translate(42.7, 57)">
      <g>
        <path fill="none" stroke="#FFFFFF" stroke-miterlimit="10" stroke-dasharray="25,30" d="M0,0
          c0,2.9-2.3,5.2-5.2,5.2c-2.9,0-5.2-2.3-5.2-5.2c0,2.9-2.3,5.2-5.2,5.2"/>
        <animate  dur="6s" 
                  repeatCount="indefinite"
                  calcMode="spline"
                  attributeName="stroke-dashoffset" 
                  values="25.5; 25.5; -30; -30" 
                  keyTimes="0; 0.4; 0.6; 1"
                  keySplines="0 0 1 1; 0.37 0.09 0.04 0.73; 0 0 1 1"/>
      </g>
    </g>
    <g transform="translate(42.7, 57) scale(-1, 1)">
      <g>
        <path fill="none" stroke="#FFFFFF" stroke-miterlimit="10" stroke-dasharray="25,30" d="M0,0
          c0,2.9-2.3,5.2-5.2,5.2c-2.9,0-5.2-2.3-5.2-5.2c0,2.9-2.3,5.2-5.2,5.2"/>
        <animate  dur="6s" 
                  repeatCount="indefinite"
                  calcMode="spline"
                  attributeName="stroke-dashoffset" 
                  values="25.5; 25.5; -30; -30" 
                  keyTimes="0; 0.4; 0.6; 1"
                  keySplines="0 0 1 1; 0.37 0.09 0.04 0.73; 0 0 1 1"/>
      </g>
    </g>
    <g transform="translate(42.7, 63.8)">
      <g>
        <path fill="none" stroke="#FFFFFF" stroke-miterlimit="10" stroke-dasharray="25,30" d="M0,0
          c0,2.9-2.3,5.2-5.2,5.2c-2.9,0-5.2-2.3-5.2-5.2c0,2.9-2.3,5.2-5.2,5.2"/>
        <animate  dur="6s" 
                  repeatCount="indefinite"
                  calcMode="spline"
                  attributeName="stroke-dashoffset" 
                  values="25.5; 25.5; -30; -30" 
                  keyTimes="0; 0.4; 0.6; 1"
                  keySplines="0 0 1 1; 0.37 0.09 0.04 0.73; 0 0 1 1"/>
      </g>
    </g>
    <g transform="translate(42.7, 63.8) scale(-1, 1)">
      <g>
        <path fill="none" stroke="#FFFFFF" stroke-miterlimit="10" stroke-dasharray="25,30" d="M0,0
          c0,2.9-2.3,5.2-5.2,5.2c-2.9,0-5.2-2.3-5.2-5.2c0,2.9-2.3,5.2-5.2,5.2"/>
        <animate  dur="6s" 
                  repeatCount="indefinite"
                  calcMode="spline"
                  attributeName="stroke-dashoffset" 
                  values="25.5; 25.5; -30; -30" 
                  keyTimes="0; 0.4; 0.6; 1"
                  keySplines="0 0 1 1; 0.37 0.09 0.04 0.73; 0 0 1 1"/>
      </g>
    </g>
	</g>
</svg>
