<svg width="24" height="19" viewBox="0 0 24 19" fill="none" xmlns="http://www.w3.org/2000/svg">
<path d="M22.3148 14.1561C22.8829 13.1022 23.1315 11.8583 22.9318 10.5452C22.5323 7.93214 20.3129 5.88486 17.6097 5.61707C16.1405 5.47022 14.7689 5.84167 13.6548 6.55865C12.8647 7.06831 11.5997 7.42248 10.5521 7.35769C10.2858 7.34042 10.0816 7.09854 10.1349 6.84371C10.2104 6.47658 10.237 5.88054 9.96179 5.07286C10.6853 4.93896 11.4355 4.72301 12.1945 4.41634C14.1031 3.64321 15.599 2.49432 16.3758 1.32814C14.9776 1.0474 13.0822 1.26767 11.178 2.03649C10.2814 2.39929 9.47797 2.84849 8.79441 3.34087C8.17742 2.84849 7.39177 2.55478 6.53066 2.55478C3.09952 2.55478 1 5.6905 1 6.70982C1 8.42453 2.30499 9.30132 5.35883 9.46976C5.66067 9.48704 5.85153 9.78938 5.73168 10.0572C5.37215 10.8346 5.23011 11.7287 5.3899 12.6659C5.71837 14.6096 7.35182 16.1472 9.35813 16.4107C9.41139 16.4193 9.46465 16.4193 9.51792 16.4236V16.6007H7.8312C7.03667 16.6007 6.39306 17.227 6.39306 18.0001H18.9236C19.4163 18.0001 19.7758 17.5984 19.7803 17.119C19.7847 16.821 19.9445 16.5489 20.2019 16.3891C20.3395 16.3027 20.4771 16.2077 20.6059 16.1126C20.9033 16.4668 21.3782 16.6741 21.902 16.5791C22.4613 16.4798 22.9051 16.0219 22.9806 15.4734C23.0649 14.9033 22.772 14.4066 22.3148 14.1561Z" stroke="currentColor" stroke-miterlimit="10" stroke-linejoin="round"/>
</svg>
