<svg width="757" height="343" viewBox="0 0 757 343" fill="none" xmlns="http://www.w3.org/2000/svg">
  <path d="M629.703 113.376C602.125 123.575 571.508 109.49 561.309 81.912C551.11 54.3344 565.195 23.7168 592.773 13.5178C610.647 6.90744 629.804 10.5145 643.844 21.3741C625.699 3.1308 597.917 -3.94306 572.203 5.56648C537.076 18.5575 519.128 57.5699 532.122 92.7059C545.117 127.842 584.129 145.789 619.265 132.795C644.979 123.285 661.465 99.8398 663.382 74.177C659.777 91.5621 647.586 106.763 629.703 113.376Z" stroke="white" stroke-miterlimit="10" stroke-linejoin="round"/>
  <path d="M42.4699 109.58L43.6999 113.28C44.7899 116.55 47.3399 119.3 50.7699 120.94C47.3299 122.57 44.7899 125.33 43.6999 128.6L42.4699 132.3L41.2399 128.6C40.1499 125.33 37.5999 122.58 34.1699 120.94C37.5999 119.3 40.1499 116.54 41.2399 113.28L42.4699 109.58Z" stroke="white" stroke-miterlimit="10"/>
  <path d="M651.3 318L652.53 321.7C653.62 324.97 656.17 327.72 659.6 329.36C656.16 330.99 653.62 333.75 652.53 337.02L651.3 340.72L650.07 337.02C648.98 333.75 646.43 331 643 329.36C646.43 327.72 648.98 324.96 650.07 321.7L651.3 318Z" stroke="white" stroke-miterlimit="10"/>
  <path d="M7.5301 103.35L1.3501 109.53" stroke="white" stroke-miterlimit="10"/>
  <path d="M7.5301 109.53L1.3501 103.35" stroke="white" stroke-miterlimit="10"/>
  <path d="M75.18 97L69 103.18" stroke="white" stroke-miterlimit="10"/>
  <path d="M75.18 103.18L69 97" stroke="white" stroke-miterlimit="10"/>
  <path d="M690.18 312L684 318.18" stroke="white" stroke-miterlimit="10"/>
  <path d="M690.18 318.18L684 312" stroke="white" stroke-miterlimit="10"/>
  <path d="M756.18 70L750 76.18" stroke="white" stroke-miterlimit="10"/>
  <path d="M756.18 76.18L750 70" stroke="white" stroke-miterlimit="10"/>
</svg>
