<svg xmlns="http://www.w3.org/2000/svg" xmlns:xlink="http://www.w3.org/1999/xlink"><defs>
    <clipPath id="clip0">
      <rect width="26" height="27" transform="matrix(-1 0 0 1 1109 431)" fill="white"/>
    </clipPath>
  </defs><symbol id="arr-down" viewBox="0 0 17 28">
<path d="M16.0225 19.5867C11.5916 19.5867 8.01122 23.1725 8.01122 27.5979" stroke="currentColor" stroke-miterlimit="10"/>
<path d="M8.01125 27.5979C8.01125 23.1671 4.42542 19.5867 0 19.5867" stroke="currentColor" stroke-miterlimit="10"/>
<path d="M8.01122 27.7496L8.01122 0" stroke="currentColor" stroke-miterlimit="10"/>
</symbol><symbol id="arr-next" viewBox="0 0 42 25">
<path d="M29.6451 -6.79806e-05C29.6451 6.70616 35.0724 12.1252 41.7705 12.1252" stroke="currentColor" stroke-miterlimit="10"/>
<path d="M41.7705 12.1252C35.0642 12.1252 29.6451 17.5525 29.6451 24.2505" stroke="currentColor" stroke-miterlimit="10"/>
<path d="M42 12.1252L0 12.1252" stroke="currentColor" stroke-miterlimit="10"/>
</symbol><symbol id="arr-prev" viewBox="0 0 42 25">
<path d="M12.3547 24.2503C12.3547 17.5441 6.92745 12.125 0.229423 12.125" stroke="currentColor" stroke-miterlimit="10"/>
<path d="M0.229667 12.1253C6.93589 12.1253 12.355 6.69803 12.355 0" stroke="currentColor" stroke-miterlimit="10"/>
<path d="M1.78484e-05 12.125L42 12.125" stroke="currentColor" stroke-miterlimit="10"/>
</symbol><symbol id="badge" viewBox="0 0 45 45">
<path d="M45 22.5016L35.3607 25.5156L42.7748 32.5175L32.8159 30.9325L36.5307 40.5411L28.2228 34.6945L27.5028 45L22.5 36.028L17.4972 45L16.7772 34.6945L8.46931 40.5411L12.1841 30.9325L2.22517 32.5175L9.63931 25.5156L0 22.5016L9.63931 19.4844L2.22517 12.4857L12.1841 14.0707L8.46931 4.46213L16.7772 10.3087L17.4972 0L22.5 8.97518L27.5028 0L28.2228 10.3087L36.5307 4.46213L32.8159 14.0707L42.7748 12.4857L35.3607 19.4844L45 22.5016Z" fill="#C78FFF"/>
</symbol><symbol id="cards" viewBox="0 0 30 31">
<path d="M17.3945 5.71436H1V29.9999H17.3945V5.71436Z" stroke="currentColor" stroke-miterlimit="10"/>
<path d="M12.8724 16.4755C15.6236 19.2391 11.9228 23.0778 9.17669 20.3142C6.5897 22.9992 2.83241 19.2234 5.4194 16.5384L9.11509 12.6997L12.8724 16.4755Z" stroke="currentColor" stroke-miterlimit="10" stroke-linejoin="round"/>
<path d="M9.17676 20.314V23.0199" stroke="currentColor" stroke-miterlimit="10" stroke-linejoin="round"/>
<path d="M7.60083 23.02H10.7524" stroke="currentColor" stroke-miterlimit="10" stroke-linejoin="round"/>
<path d="M11.9075 5.74068L13.3036 1L29.0001 5.82458L22.1528 29.0823L17.7282 27.7241" stroke="currentColor" stroke-miterlimit="10"/>
</symbol><symbol id="cart" viewBox="0 0 26 25">
<path d="M25 7.37378H1V23.9565H25V7.37378Z" stroke="currentColor" stroke-miterlimit="10"/>
<path d="M6.6571 7.37382C6.6571 3.85471 9.49787 1 12.9998 1C16.5017 1 19.3424 3.85471 19.3424 7.37382" stroke="currentColor" stroke-miterlimit="10"/>
</symbol><symbol id="cross" viewBox="0 0 15 15">
<line x1="13.7886" y1="0.353553" x2="0.353583" y2="13.7886" stroke="black"/>
<line x1="0.353553" y1="0.646447" x2="13.7886" y2="14.0815" stroke="black"/>
</symbol><symbol id="decor" viewBox="0 0 1240 482">
  <path d="M371.116 144.087V108.277" stroke="white" stroke-miterlimit="10"/>
  <path d="M379.853 104.443C380.006 103.64 380.048 102.796 379.964 101.923C379.559 97.615 376.005 94.187 371.689 93.9147C366.521 93.5935 362.233 97.6849 362.233 102.782C362.233 103.235 362.268 103.675 362.331 104.115C362.729 106.768 362.212 109.505 360.599 111.662C358.769 114.106 357.777 117.213 358.043 120.557C358.552 126.967 363.769 132.126 370.187 132.573C377.848 133.104 384.231 127.043 384.231 119.496C384.231 116.557 383.268 113.848 381.634 111.662C380.083 109.582 379.371 106.992 379.853 104.443Z" stroke="white" stroke-miterlimit="10"/>
  <path d="M564.116 253.922V218.112" stroke="white" stroke-miterlimit="10"/>
  <path d="M572.853 214.279C573.006 213.476 573.048 212.631 572.964 211.758C572.559 207.45 569.005 204.022 564.689 203.75C559.521 203.429 555.233 207.52 555.233 212.617C555.233 213.071 555.268 213.511 555.331 213.951C555.729 216.604 555.212 219.341 553.599 221.498C551.769 223.942 550.777 227.048 551.043 230.393C551.552 236.802 556.769 241.962 563.187 242.409C570.848 242.939 577.231 236.879 577.231 229.332C577.231 226.392 576.268 223.683 574.634 221.498C573.083 219.417 572.371 216.827 572.853 214.279Z" stroke="white" stroke-miterlimit="10"/>
  <path d="M565.594 455.46V419.65" stroke="white" stroke-miterlimit="10"/>
  <path d="M574.331 415.817C574.485 415.014 574.527 414.169 574.443 413.296C574.038 408.989 570.483 405.56 566.167 405.288C561 404.967 556.712 409.058 556.712 414.155C556.712 414.609 556.746 415.049 556.809 415.489C557.207 418.142 556.691 420.879 555.077 423.036C553.248 425.48 552.256 428.587 552.521 431.931C553.031 438.34 558.248 443.5 564.666 443.947C572.327 444.477 578.71 438.417 578.71 430.87C578.71 427.93 577.746 425.221 576.112 423.036C574.562 420.955 573.85 418.365 574.331 415.817Z" stroke="white" stroke-miterlimit="10"/>
  <path d="M843.08 182.19V146.38" stroke="white" stroke-miterlimit="10"/>
  <path d="M851.817 142.546C851.971 141.743 852.013 140.899 851.929 140.026C851.524 135.718 847.969 132.29 843.653 132.018C838.485 131.697 834.197 135.788 834.197 140.885C834.197 141.338 834.232 141.778 834.295 142.218C834.693 144.871 834.176 147.608 832.563 149.766C830.733 152.209 829.741 155.316 830.007 158.66C830.517 165.07 835.734 170.229 842.152 170.676C849.813 171.207 856.196 165.146 856.196 157.599C856.196 154.66 855.232 151.951 853.598 149.766C852.048 147.685 851.335 145.095 851.817 142.546Z" stroke="white" stroke-miterlimit="10"/>
  <path d="M843.116 316.19V280.38" stroke="white" stroke-miterlimit="10"/>
  <path d="M851.853 276.546C852.006 275.743 852.048 274.899 851.964 274.026C851.559 269.718 848.005 266.29 843.689 266.018C838.521 265.697 834.233 269.788 834.233 274.885C834.233 275.338 834.268 275.778 834.331 276.218C834.729 278.871 834.212 281.608 832.599 283.766C830.769 286.209 829.777 289.316 830.043 292.66C830.552 299.07 835.769 304.229 842.187 304.676C849.848 305.207 856.231 299.146 856.231 291.599C856.231 288.66 855.268 285.951 853.634 283.766C852.083 281.685 851.371 279.095 851.853 276.546Z" stroke="white" stroke-miterlimit="10"/>
  <path d="M627.388 101.19V65.3799" stroke="white" stroke-miterlimit="10"/>
  <path d="M636.125 61.5463C636.279 60.7434 636.321 59.8986 636.237 59.0259C635.832 54.7181 632.277 51.29 627.961 51.0177C622.793 50.6965 618.505 54.7879 618.505 59.8846C618.505 60.3384 618.54 60.7783 618.603 61.2182C619.001 63.8712 618.484 66.6081 616.871 68.7655C615.041 71.2091 614.05 74.3161 614.315 77.6604C614.825 84.0697 620.042 89.2293 626.46 89.6761C634.121 90.2067 640.504 84.1465 640.504 76.5991C640.504 73.6598 639.54 70.9508 637.906 68.7655C636.356 66.6849 635.643 64.0947 636.125 61.5463Z" stroke="white" stroke-miterlimit="10"/>
  <path d="M400.482 144.086V134.877" stroke="white" stroke-miterlimit="10"/>
  <path d="M398.625 98.0691L389.357 134.877H411.608L402.34 98.0691C401.858 96.1352 399.114 96.1352 398.625 98.0691Z" stroke="white" stroke-miterlimit="10" stroke-linejoin="round"/>
  <path d="M598.329 253.786V244.577" stroke="white" stroke-miterlimit="10"/>
  <path d="M596.472 207.769L587.204 244.577H609.454L600.187 207.769C599.705 205.835 596.961 205.835 596.472 207.769Z" stroke="white" stroke-miterlimit="10" stroke-linejoin="round"/>
  <path d="M599.808 455.325V446.116" stroke="white" stroke-miterlimit="10"/>
  <path d="M597.951 409.307L588.683 446.116H610.933L601.666 409.307C601.184 407.373 598.439 407.373 597.951 409.307Z" stroke="white" stroke-miterlimit="10" stroke-linejoin="round"/>
  <path d="M872.447 182.189V172.98" stroke="white" stroke-miterlimit="10"/>
  <path d="M870.589 136.172L861.322 172.98H883.572L874.305 136.172C873.823 134.238 871.078 134.238 870.589 136.172Z" stroke="white" stroke-miterlimit="10" stroke-linejoin="round"/>
  <path d="M656.755 101.189V91.9805" stroke="white" stroke-miterlimit="10"/>
  <path d="M654.898 55.1722L645.63 91.9804H667.88L658.613 55.1722C658.131 53.2382 655.386 53.2382 654.898 55.1722Z" stroke="white" stroke-miterlimit="10" stroke-linejoin="round"/>

  <path d="M1223.68 377C1223.68 379.888 1221.34 382.226 1218.45 382.226C1215.57 382.226 1213.23 379.888 1213.23 377" stroke="white" stroke-miterlimit="10"/>
  <path d="M1239.36 382.226C1236.47 382.226 1234.14 379.888 1234.14 377" stroke="white" stroke-miterlimit="10"/>
  <path d="M1213.23 377C1213.23 379.888 1210.89 382.226 1208 382.226" stroke="white" stroke-miterlimit="10"/>
  <path d="M1234.14 377C1234.14 379.888 1231.8 382.226 1228.91 382.226C1226.02 382.226 1223.68 379.888 1223.68 377" stroke="white" stroke-miterlimit="10"/>
  <path d="M1223.68 383.97C1223.68 386.858 1221.34 389.196 1218.45 389.196C1215.57 389.196 1213.23 386.858 1213.23 383.97" stroke="white" stroke-miterlimit="10"/>
  <path d="M1239.36 389.196C1236.47 389.196 1234.14 386.858 1234.14 383.97" stroke="white" stroke-miterlimit="10"/>
  <path d="M1213.23 383.97C1213.23 386.858 1210.89 389.196 1208 389.196" stroke="white" stroke-miterlimit="10"/>
  <path d="M1234.14 383.97C1234.14 386.858 1231.8 389.196 1228.91 389.196C1226.02 389.196 1223.68 386.858 1223.68 383.97" stroke="white" stroke-miterlimit="10"/>
  <path d="M1085.68 469C1085.68 471.888 1083.34 474.226 1080.45 474.226C1077.57 474.226 1075.23 471.888 1075.23 469" stroke="white" stroke-miterlimit="10"/>
  <path d="M1101.36 474.226C1098.47 474.226 1096.14 471.888 1096.14 469" stroke="white" stroke-miterlimit="10"/>
  <path d="M1075.23 469C1075.23 471.888 1072.89 474.226 1070 474.226" stroke="white" stroke-miterlimit="10"/>
  <path d="M1096.14 469C1096.14 471.888 1093.8 474.226 1090.91 474.226C1088.02 474.226 1085.68 471.888 1085.68 469" stroke="white" stroke-miterlimit="10"/>
  <path d="M1085.68 475.97C1085.68 478.858 1083.34 481.196 1080.45 481.196C1077.57 481.196 1075.23 478.858 1075.23 475.97" stroke="white" stroke-miterlimit="10"/>
  <path d="M1101.36 481.196C1098.47 481.196 1096.14 478.858 1096.14 475.97" stroke="white" stroke-miterlimit="10"/>
  <path d="M1075.23 475.97C1075.23 478.858 1072.89 481.196 1070 481.196" stroke="white" stroke-miterlimit="10"/>
  <path d="M1096.14 475.97C1096.14 478.858 1093.8 481.196 1090.91 481.196C1088.02 481.196 1085.68 478.858 1085.68 475.97" stroke="white" stroke-miterlimit="10"/>

  <path d="M343 64L376 64" stroke="white" stroke-miterlimit="10"/>
  <path d="M323 64L335 64" stroke="white" stroke-miterlimit="10"/>
  <path d="M328 58.6306H345.859C345.859 53.8668 349.726 50 354.49 50C359.254 50 363.126 53.8668 363.126 58.6306H370.364" stroke="white" stroke-miterlimit="10"/>
  <path d="M950.889 92.1006H986.051" stroke="white" stroke-miterlimit="10"/>
  <path d="M938 86.6306H955.859C955.859 81.8668 959.726 78 964.49 78C969.254 78 973.126 81.8668 973.126 86.6306H995.751" stroke="white" stroke-miterlimit="10"/>
  <g clip-path="url(#clip0)">
    <path d="M1095.82 433.39C1096.28 433.334 1096.74 433.302 1097.21 433.302C1102.68 433.302 1107.26 437.004 1108.6 442.017C1108.08 442.793 1107.44 443.464 1106.68 444.008C1105.4 444.935 1103.83 445.495 1102.13 445.495C1099.63 445.495 1097.43 444.32 1096.01 442.497C1091.72 443.976 1088.56 447.838 1088.14 452.499C1086.44 450.468 1085.42 447.862 1085.42 445.015C1085.42 439.011 1089.97 434.078 1095.82 433.39Z" stroke="white" stroke-miterlimit="10" stroke-linejoin="round"/>
    <path d="M1098.74 433.302C1098.74 433.302 1095.76 428.313 1085.94 434.502C1085.94 434.502 1088.97 435.685 1088.73 436.884" stroke="white" stroke-miterlimit="10" stroke-linejoin="round"/>
    <path d="M1087.5 452.499H1088.01H1088.13H1088.64C1090.9 452.499 1092.73 454.322 1092.73 456.561V457.592C1090.42 457.592 1088.5 455.961 1088.06 453.794C1087.62 455.961 1085.7 457.592 1083.39 457.592V456.561C1083.4 454.322 1085.24 452.499 1087.5 452.499Z" stroke="white" stroke-miterlimit="10" stroke-linejoin="round"/>
    <path d="M1093.33 439.931L1090.65 442.569C1090.65 442.569 1092.29 444.056 1096.01 442.497" stroke="white" stroke-miterlimit="10" stroke-linecap="round" stroke-linejoin="round"/>
  </g>
</symbol><symbol id="eye" viewBox="0 0 37 23">
<mask id="path-1-inside-1" fill="white">
<path fill-rule="evenodd" clip-rule="evenodd" d="M0.5 11.5773C3.99984 5.24046 10.7487 0.94873 18.4999 0.94873C26.2512 0.94873 33 5.24046 36.4999 11.5773C33 17.9141 26.2512 22.2059 18.4999 22.2059C10.7487 22.2059 3.99984 17.9141 0.5 11.5773Z"/>
</mask>
<path d="M0.5 11.5773L-0.375364 11.0938L-0.642382 11.5773L-0.375364 12.0608L0.5 11.5773ZM36.4999 11.5773L37.3752 12.0608L37.6423 11.5773L37.3752 11.0938L36.4999 11.5773ZM1.37536 12.0608C4.70631 6.02973 11.1272 1.94873 18.4999 1.94873V-0.0512695C10.3702 -0.0512695 3.29337 4.4512 -0.375364 11.0938L1.37536 12.0608ZM18.4999 1.94873C25.8726 1.94873 32.2936 6.02972 35.6245 12.0608L37.3752 11.0938C33.7065 4.4512 26.6297 -0.0512695 18.4999 -0.0512695V1.94873ZM35.6245 11.0938C32.2936 17.1249 25.8726 21.2059 18.4999 21.2059V23.2059C26.6297 23.2059 33.7065 18.7034 37.3752 12.0608L35.6245 11.0938ZM18.4999 21.2059C11.1272 21.2059 4.70631 17.1249 1.37536 11.0938L-0.375364 12.0608C3.29337 18.7034 10.3702 23.2059 18.4999 23.2059V21.2059Z" fill="currentColor" mask="url(#path-1-inside-1)"/>
<circle cx="18.4998" cy="11.4482" r="7" stroke="currentColor"/>
</symbol><symbol id="globe" viewBox="0 0 27 27">
<path d="M13.5 26C20.4036 26 26 20.4035 26 13.5C26 6.59643 20.4036 1 13.5 1C6.59644 1 1 6.59643 1 13.5C1 20.4035 6.59644 26 13.5 26Z" stroke="currentColor" stroke-miterlimit="10"/>
<path d="M13.5 26C16.1205 26 18.2449 20.4035 18.2449 13.5C18.2449 6.59643 16.1205 1 13.5 1C10.8795 1 8.75513 6.59643 8.75513 13.5C8.75513 20.4035 10.8795 26 13.5 26Z" stroke="currentColor" stroke-miterlimit="10"/>
<path d="M1 13.5H26" stroke="currentColor" stroke-miterlimit="10"/>
<path d="M2.57263 7.60107H24.4274" stroke="currentColor" stroke-miterlimit="10"/>
<path d="M2.57263 19.3989H24.4274" stroke="currentColor" stroke-miterlimit="10"/>
</symbol><symbol id="hat" viewBox="0 0 26 21">
<path d="M20.8683 1H5.13171V20H20.8683V1Z" stroke="currentColor" stroke-miterlimit="10"/>
<path d="M0 1H26" stroke="currentColor" stroke-miterlimit="10"/>
<path d="M5.13171 5.2229H20.8683" stroke="currentColor" stroke-miterlimit="10"/>
</symbol><symbol id="home" viewBox="0 0 27 26">
<path d="M1 13.1932L13.6029 1L26 13.1932" stroke="currentColor" stroke-miterlimit="10"/>
<path d="M13.5837 1L3.38037 10.8685V25H23.6197V10.8685L13.5837 1Z" stroke="currentColor" stroke-miterlimit="10"/>
<path d="M16.9547 12.6497H10.0453V19.6827H16.9547V12.6497Z" stroke="currentColor" stroke-miterlimit="10"/>
</symbol><symbol id="meal" viewBox="0 0 25 22">
<path d="M23.8127 8.39418H1.18042C1.18042 4.21733 4.56421 0.834473 8.74218 0.834473H16.251C20.429 0.834473 23.8127 4.22215 23.8127 8.39418Z" fill="currentColor"/>
<path d="M18.34 21.2994H6.6532C3.63042 21.2994 1.18042 18.8501 1.18042 15.8281H23.8127C23.8127 18.8501 21.3628 21.2994 18.34 21.2994Z" fill="currentColor"/>
<path d="M1.18042 10.5547H23.8127" stroke="currentColor" stroke-miterlimit="10"/>
<path d="M0.218262 12.0654C3.28917 12.0654 3.28918 14.3175 6.36009 14.3175C9.431 14.3175 9.431 12.0654 12.5019 12.0654C15.5728 12.0654 15.5728 14.3175 18.6437 14.3175C21.7146 14.3175 21.7146 12.0654 24.7856 12.0654" stroke="currentColor" stroke-miterlimit="10"/>
</symbol><symbol id="plane" viewBox="0 0 178 82">
<path d="M114.442 57.4037C88.6278 40.7777 62.8139 74.5973 37 57.9627C37 52.2172 37 46.4716 37 40.7175C62.8139 57.3434 88.6278 23.5324 114.442 40.1584C114.442 45.9126 114.442 51.6581 114.442 57.4037Z" fill="#353535" stroke="white" stroke-miterlimit="10" stroke-linejoin="round"/>
<path d="M48.135 49.6025C48.5099 49.6627 48.8932 49.7144 49.2681 49.766C49.3618 50.1874 49.5748 51.0733 49.8985 52.4151C50.12 53.3182 50.333 54.2299 50.5545 55.1503C50.776 56.0706 50.9209 56.7587 51.0061 57.2231C51.0401 57.2231 51.0657 57.2231 51.0998 57.2317C51.6535 54.832 52.2073 52.4237 52.7696 49.9982C53.0763 49.9982 53.3745 49.9982 53.6812 49.9982C54.2349 52.4151 54.7887 54.8234 55.351 57.2231C55.3765 57.2231 55.4021 57.2231 55.4362 57.2145C55.5128 56.8017 55.6492 56.1824 55.8366 55.3567C56.0325 54.531 56.2285 53.7053 56.4329 52.871C56.8419 51.1851 57.0889 50.153 57.1656 49.7746C57.5405 49.7316 57.9238 49.6886 58.2987 49.6369C58.0772 50.4799 57.6768 52.1485 57.0804 54.6256C56.7822 55.9072 56.5352 56.9393 56.3307 57.7306C55.7599 57.7822 55.1891 57.8166 54.6268 57.8424C54.0645 55.6061 53.6556 53.7913 53.383 52.4151C53.3489 52.2345 53.3063 52.0539 53.2722 51.8818C53.2467 51.8818 53.2211 51.8818 53.187 51.8818C53.1444 52.0883 53.1018 52.2861 53.0678 52.4925C52.9144 53.2236 52.7611 53.9547 52.5907 54.703C52.4203 55.4427 52.1647 56.5006 51.8154 57.8596C51.2446 57.8338 50.6738 57.7994 50.0945 57.7478C49.643 55.6577 48.987 52.957 48.135 49.6025Z" fill="white"/>
<path d="M59.3382 53.4299C59.3382 51.8129 59.3212 50.4969 59.2871 49.482C61.1358 49.1895 62.9845 48.7939 64.8418 48.3208C64.8418 48.596 64.8418 48.8799 64.8418 49.1551C63.3594 49.5336 61.8685 49.869 60.3861 50.1356C60.3861 51.0302 60.3861 51.9333 60.3861 52.8278C61.7833 52.5698 63.172 52.2515 64.5692 51.8903C64.5692 52.1655 64.5692 52.4407 64.5692 52.716C63.172 53.06 61.7833 53.3525 60.3861 53.5933C60.3861 54.505 60.3861 55.4253 60.3861 56.337C61.8941 56.0618 63.402 55.7264 64.9185 55.3393C64.9185 55.6145 64.9185 55.8984 64.9185 56.1736C63.0442 56.6553 61.1699 57.0595 59.2956 57.352C59.3212 56.3542 59.3382 55.0469 59.3382 53.4299Z" fill="white"/>
<path d="M66.3496 54.4706C66.3666 53.3009 66.3666 52.4236 66.3666 51.8559C66.3666 51.2968 66.3581 50.4281 66.3496 49.2497C66.3496 48.8111 66.3411 48.3638 66.3411 47.9252C66.7159 47.822 67.0823 47.7187 67.4571 47.6069C67.4401 48.9229 67.423 50.1959 67.423 51.443C67.423 52.5698 67.4316 53.6277 67.4571 54.6168C67.9768 54.4706 68.7435 54.2384 69.7659 53.903C70.4219 53.6879 70.9075 53.5245 71.2142 53.4213C71.1971 53.7309 71.1716 54.0406 71.1546 54.3502C69.5529 54.8663 67.9427 55.3565 66.3411 55.7952C66.3411 55.3565 66.3496 54.9179 66.3496 54.4706Z" fill="white"/>
<path d="M72.0747 53.1462C71.4783 52.6473 71.1716 51.7356 71.1716 50.411C71.1716 49.095 71.4698 48.0027 72.0747 47.1082C72.6796 46.2223 73.5486 45.5858 74.6987 45.2073C75.6784 44.8805 76.4452 44.8719 76.9904 45.1815C77.5357 45.4912 77.885 46.0932 78.0298 46.9878C77.672 47.1512 77.3227 47.3146 76.9649 47.478C76.8285 46.7899 76.5644 46.3255 76.164 46.0932C75.7721 45.861 75.2354 45.8524 74.5709 46.076C73.9745 46.2739 73.4804 46.5835 73.08 47.0136C72.5262 47.8823 72.2536 48.923 72.2536 50.1444C72.2536 51.1679 72.4751 51.8818 72.9181 52.2774C73.3611 52.6731 73.9916 52.7333 74.8094 52.4667C75.3632 52.286 75.8147 52.0194 76.1725 51.6668C76.4963 51.2367 76.7348 50.6776 76.8967 49.9895C77.2545 49.8691 77.6123 49.7487 77.9701 49.6369C77.7998 50.54 77.4419 51.3055 76.9052 51.9334C76.3685 52.5613 75.6273 53.0257 74.6987 53.3354C73.5486 53.7138 72.6796 53.645 72.0747 53.1462Z" fill="white"/>
<path d="M79.9211 50.566C79.3162 50.0671 79.0181 49.1554 79.0181 47.8308C79.0181 46.5149 79.3248 45.4139 79.9296 44.528C80.5345 43.6421 81.412 43.0142 82.5451 42.6702C83.6867 42.3261 84.5642 42.4207 85.1691 42.954C85.774 43.4873 86.0807 44.4162 86.0807 45.7322C86.0807 47.0481 85.774 48.1319 85.1691 48.9834C84.5642 49.8435 83.6952 50.437 82.5622 50.7724C81.4035 51.1337 80.526 51.0648 79.9211 50.566ZM84.0275 49.1726C84.675 48.3297 84.9987 47.289 84.9987 46.0418C84.9987 45.0269 84.7772 44.2958 84.3427 43.8485C83.9082 43.4012 83.3033 43.2894 82.5196 43.5217C81.8721 43.7195 81.3439 44.0291 80.9349 44.4592C80.3727 45.2849 80.083 46.2912 80.083 47.461C80.083 48.1319 80.1852 48.6909 80.3812 49.1124C80.5856 49.5424 80.8753 49.8263 81.2502 49.9725C81.625 50.1187 82.0765 50.1101 82.5877 49.9553C83.1841 49.7661 83.6612 49.508 84.0275 49.1726Z" fill="white"/>
<path d="M87.5714 44.674C87.5714 44.1235 87.5629 43.3236 87.5543 42.2657C87.5543 41.9818 87.5458 41.6894 87.5458 41.4056C88.0996 41.2679 88.6534 41.1475 89.1986 41.0271C90.0079 43.0914 90.8173 45.1728 91.6352 47.2715C91.6607 47.2629 91.6863 47.2629 91.7204 47.2543C92.5212 44.8804 93.3305 42.5323 94.1313 40.21C94.6851 40.1498 95.2389 40.0982 95.7841 40.0552C95.7671 41.5174 95.7671 42.6097 95.7671 43.3408C95.7671 44.9148 95.7841 46.4458 95.8267 47.9252C95.4859 47.951 95.1452 47.9768 94.8044 48.0112C94.8129 47.2199 94.8129 45.9813 94.8129 44.2955C94.8129 43.5472 94.8044 42.5065 94.7959 41.1733C94.7618 41.1733 94.7277 41.1819 94.6936 41.1819C93.8587 43.5472 93.0323 45.9297 92.1974 48.3467C91.8481 48.3983 91.4988 48.4585 91.1581 48.5187C90.3232 46.3856 89.4797 44.2697 88.6448 42.1711C88.6193 42.1797 88.5937 42.1797 88.5596 42.1883C88.5596 42.5065 88.5511 42.8333 88.5511 43.1516C88.5341 44.1321 88.5341 44.8632 88.5341 45.3449C88.5341 46.1792 88.5341 47.0135 88.5341 47.8564C88.5341 48.252 88.5341 48.6563 88.5341 49.0519C88.1933 49.1294 87.861 49.2068 87.5203 49.2928C87.5543 47.2801 87.5714 45.7405 87.5714 44.674Z" fill="white"/>
<path d="M97.7352 43.9171C97.7352 42.3001 97.7182 40.9841 97.6841 39.9606C99.5328 39.9262 101.382 40.038 103.239 40.339C103.239 40.6143 103.239 40.8981 103.239 41.1734C101.756 40.9325 100.265 40.8121 98.7831 40.7949C98.7831 41.6894 98.7831 42.5925 98.7831 43.4871C100.18 43.4957 101.569 43.5903 102.966 43.7881C102.966 44.0633 102.966 44.3386 102.966 44.6138C101.569 44.3902 100.18 44.2784 98.7831 44.2439C98.7831 45.1557 98.7831 46.076 98.7831 46.9877C100.291 47.0049 101.799 47.1339 103.315 47.3748C103.315 47.65 103.315 47.9338 103.315 48.2091C101.441 47.8994 99.5669 47.7876 97.6926 47.822C97.7182 46.8415 97.7352 45.5341 97.7352 43.9171Z" fill="white"/>
<path d="M114.442 49.0693H127.425" stroke="white" stroke-miterlimit="10" stroke-linejoin="round"/>
<path d="M159.297 57.9629H173.899C175.611 57.9629 177 56.5609 177 54.8321C177 52.527 167.824 48.4673 165.371 48.364L162.968 48.2608H134.3L131.958 42.1196H127.425V48.2608V50.1789C127.425 51.7443 128.414 53.1291 129.879 53.6279C134.19 55.0987 140.264 57.9543 144.967 57.9543H149.397" fill="#353535"/>
<path d="M159.297 57.9629H173.899C175.611 57.9629 177 56.5609 177 54.8321C177 52.527 167.824 48.4673 165.371 48.364L162.968 48.2608H134.3L131.958 42.1196H127.425V48.2608V50.1789C127.425 51.7443 128.414 53.1291 129.879 53.6279C134.19 55.0987 140.264 57.9543 144.967 57.9543H149.397" stroke="white" stroke-miterlimit="10" stroke-linejoin="round"/>
<path d="M145.546 72.3525H142.326L151.339 54.0063H162.415L149.482 70.4345C148.528 71.6472 147.08 72.3525 145.546 72.3525Z" fill="#353535" stroke="white" stroke-miterlimit="10" stroke-linejoin="round"/>
<path d="M159.714 48.2694L149.482 35.5225C148.528 34.3356 147.097 33.6475 145.58 33.6475H142.334L149.516 48.2694" fill="#353535"/>
<path d="M159.714 48.2694L149.482 35.5225C148.528 34.3356 147.097 33.6475 145.58 33.6475H142.334L149.516 48.2694" stroke="white" stroke-miterlimit="10" stroke-linejoin="round"/>
<path d="M143.612 36.2622H141.056V39.8575H145.376L143.612 36.2622Z" fill="#353535" stroke="white" stroke-miterlimit="10" stroke-linejoin="round"/>
<path d="M143.084 70.7095H140.528V67.1143H144.847L143.084 70.7095Z" fill="#353535" stroke="white" stroke-miterlimit="10" stroke-linejoin="round"/>
<line x1="139" y1="68.5" x2="125" y2="68.5" stroke="white"/>
<line x1="115" y1="68.5" x2="107" y2="68.5" stroke="white"/>
<line x1="31" y1="73.5" x2="28" y2="73.5" stroke="white"/>
<line x1="19" y1="39.5" x2="16" y2="39.5" stroke="white"/>
<line x1="83" y1="4.5" x2="80" y2="4.5" stroke="white"/>
<line x1="99" y1="68.5" x2="97" y2="68.5" stroke="white"/>
<line x1="139" y1="38.5" x2="121" y2="38.5" stroke="white"/>
<path d="M79.5012 15.501L72.5013 22.5009" stroke="white" stroke-miterlimit="10"/>
<path d="M79.4987 22.5009L72.4988 15.501" stroke="white" stroke-miterlimit="10"/>
<path d="M10.5012 34.501L3.50127 41.5009" stroke="white" stroke-miterlimit="10"/>
<path d="M10.4987 41.5009L3.49878 34.501" stroke="white" stroke-miterlimit="10"/>
<path d="M42.0007 76.001L38.0007 80.001" stroke="white" stroke-miterlimit="10"/>
<path d="M41.9993 80.001L37.9993 76.001" stroke="white" stroke-miterlimit="10"/>
<path d="M92.0007 2.00098L88.0007 6.00103" stroke="white" stroke-miterlimit="10"/>
<path d="M91.9993 6.00103L87.9993 2.00098" stroke="white" stroke-miterlimit="10"/>
</symbol><symbol id="rabbit" viewBox="0 0 24 19">
<path d="M22.3148 14.1561C22.8829 13.1022 23.1315 11.8583 22.9318 10.5452C22.5323 7.93214 20.3129 5.88486 17.6097 5.61707C16.1405 5.47022 14.7689 5.84167 13.6548 6.55865C12.8647 7.06831 11.5997 7.42248 10.5521 7.35769C10.2858 7.34042 10.0816 7.09854 10.1349 6.84371C10.2104 6.47658 10.237 5.88054 9.96179 5.07286C10.6853 4.93896 11.4355 4.72301 12.1945 4.41634C14.1031 3.64321 15.599 2.49432 16.3758 1.32814C14.9776 1.0474 13.0822 1.26767 11.178 2.03649C10.2814 2.39929 9.47797 2.84849 8.79441 3.34087C8.17742 2.84849 7.39177 2.55478 6.53066 2.55478C3.09952 2.55478 1 5.6905 1 6.70982C1 8.42453 2.30499 9.30132 5.35883 9.46976C5.66067 9.48704 5.85153 9.78938 5.73168 10.0572C5.37215 10.8346 5.23011 11.7287 5.3899 12.6659C5.71837 14.6096 7.35182 16.1472 9.35813 16.4107C9.41139 16.4193 9.46465 16.4193 9.51792 16.4236V16.6007H7.8312C7.03667 16.6007 6.39306 17.227 6.39306 18.0001H18.9236C19.4163 18.0001 19.7758 17.5984 19.7803 17.119C19.7847 16.821 19.9445 16.5489 20.2019 16.3891C20.3395 16.3027 20.4771 16.2077 20.6059 16.1126C20.9033 16.4668 21.3782 16.6741 21.902 16.5791C22.4613 16.4798 22.9051 16.0219 22.9806 15.4734C23.0649 14.9033 22.772 14.4066 22.3148 14.1561Z" stroke="currentColor" stroke-miterlimit="10" stroke-linejoin="round"/>
</symbol><symbol id="shine" viewBox="0 0 31 31">
<path d="M15.4966 0V9.70317" stroke="currentColor" stroke-miterlimit="10"/>
<path d="M15.4966 21.29V31" stroke="currentColor" stroke-miterlimit="10"/>
<path d="M31 15.4966H21.29" stroke="currentColor" stroke-miterlimit="10"/>
<path d="M9.70317 15.4966H0" stroke="currentColor" stroke-miterlimit="10"/>
<path d="M26.4602 4.53992L19.5962 11.404" stroke="currentColor" stroke-miterlimit="10"/>
<path d="M11.4041 19.5961L4.54004 26.4601" stroke="currentColor" stroke-miterlimit="10"/>
<path d="M26.4602 26.4601L19.5962 19.5961" stroke="currentColor" stroke-miterlimit="10"/>
<path d="M11.4041 11.404L4.54004 4.53992" stroke="currentColor" stroke-miterlimit="10"/>
</symbol><symbol id="sky" viewBox="0 0 757 343">
  <path d="M629.703 113.376C602.125 123.575 571.508 109.49 561.309 81.912C551.11 54.3344 565.195 23.7168 592.773 13.5178C610.647 6.90744 629.804 10.5145 643.844 21.3741C625.699 3.1308 597.917 -3.94306 572.203 5.56648C537.076 18.5575 519.128 57.5699 532.122 92.7059C545.117 127.842 584.129 145.789 619.265 132.795C644.979 123.285 661.465 99.8398 663.382 74.177C659.777 91.5621 647.586 106.763 629.703 113.376Z" stroke="white" stroke-miterlimit="10" stroke-linejoin="round"/>
  <path d="M42.4699 109.58L43.6999 113.28C44.7899 116.55 47.3399 119.3 50.7699 120.94C47.3299 122.57 44.7899 125.33 43.6999 128.6L42.4699 132.3L41.2399 128.6C40.1499 125.33 37.5999 122.58 34.1699 120.94C37.5999 119.3 40.1499 116.54 41.2399 113.28L42.4699 109.58Z" stroke="white" stroke-miterlimit="10"/>
  <path d="M651.3 318L652.53 321.7C653.62 324.97 656.17 327.72 659.6 329.36C656.16 330.99 653.62 333.75 652.53 337.02L651.3 340.72L650.07 337.02C648.98 333.75 646.43 331 643 329.36C646.43 327.72 648.98 324.96 650.07 321.7L651.3 318Z" stroke="white" stroke-miterlimit="10"/>
  <path d="M7.5301 103.35L1.3501 109.53" stroke="white" stroke-miterlimit="10"/>
  <path d="M7.5301 109.53L1.3501 103.35" stroke="white" stroke-miterlimit="10"/>
  <path d="M75.18 97L69 103.18" stroke="white" stroke-miterlimit="10"/>
  <path d="M75.18 103.18L69 97" stroke="white" stroke-miterlimit="10"/>
  <path d="M690.18 312L684 318.18" stroke="white" stroke-miterlimit="10"/>
  <path d="M690.18 318.18L684 312" stroke="white" stroke-miterlimit="10"/>
  <path d="M756.18 70L750 76.18" stroke="white" stroke-miterlimit="10"/>
  <path d="M756.18 76.18L750 70" stroke="white" stroke-miterlimit="10"/>
</symbol><symbol id="star" viewBox="0 0 31 30">
<path d="M15.4974 2L18.6881 11.9328H29L20.6559 18.0672L23.8415 28L15.4974 21.8655L7.15338 28L10.3441 18.0672L2 11.9328H12.3119L15.4974 2Z" stroke="currentColor" stroke-miterlimit="10"/>
</symbol><symbol id="tent" viewBox="0 0 22 27">
<path d="M21.4288 15.647H0.773682V25.7042H21.4288V15.647Z" stroke="currentColor" stroke-miterlimit="10" stroke-linejoin="round"/>
<path d="M12.3121 6.66064H9.89034L0.773682 15.6476H21.4288L12.3121 6.66064Z" stroke="currentColor" stroke-miterlimit="10" stroke-linejoin="round"/>
<path d="M11.1011 6.66021V1.39258" stroke="currentColor" stroke-miterlimit="10" stroke-linejoin="round"/>
<path d="M13.1631 2.58119L11.1011 1.39258V3.76981L13.1631 2.58119Z" stroke="currentColor" stroke-miterlimit="10" stroke-linejoin="round"/>
</symbol><symbol id="threadLeft" viewBox="0 0 152 208">
  <title>threadLeft</title>
  <path d="M150,296s24.79,75.6,68,110.27c42.89,34.43,84.09,92.45,84,97.73" transform="translate(-150 -296)" fill="none"/>
</symbol><symbol id="threadRight" viewBox="0 0 30 262">
  <title>threadRight</title>
  <path d="M211.5,269s16.05,39,10.92,117.22S236.26,525.33,241.5,531" transform="translate(-211.5 -269)" fill="none"/>
</symbol><symbol id="wc" viewBox="0 0 20 20">
<path d="M4.42333 8.24874L0.846191 19.9138H9.43455L5.85741 8.24874C5.67141 7.63584 4.61202 7.63584 4.42333 8.24874Z" fill="currentColor"/>
<path d="M15.9614 19.4544L19.5386 7.78932L10.9502 7.78932L14.5274 19.4544C14.7134 20.0673 15.7727 20.0673 15.9614 19.4544Z" fill="currentColor"/>
<circle cx="5.14065" cy="2.99001" r="2.77859" fill="currentColor"/>
<circle cx="15.2446" cy="2.99001" r="2.77859" fill="currentColor"/>
</symbol></svg>
